<?xml version="1.0" standalone="no"?>
<!DOCTYPE svg PUBLIC "-//W3C//DTD SVG 1.1//EN" "http://www.w3.org/Graphics/SVG/1.1/DTD/svg11.dtd" >
<!--
2013-9-30: Created.
-->
<svg>
<metadata>
Created by iconfont
</metadata>
<defs>

<font id="iconfont" horiz-adv-x="1024" >
  <font-face
    font-family="iconfont"
    font-weight="500"
    font-stretch="normal"
    units-per-em="1024"
    ascent="896"
    descent="-128"
  />
    <missing-glyph />
    
    <glyph glyph-name="ticket" unicode="&#58888;" d="M993.8999 727.8114c-45.0761 72.7225-199.6011 4.9266-362.1339-96.8511l-180.0926 91.9255 4.2683 2.4963c8.8054 5.1385 11.8384 16.5348 6.7427 25.4717-5.0648 8.9229-16.3425 11.9709-25.1479 6.8174l-25.1769-14.718L234.1959 833.8942c-17.6097 10.291-40.1373 4.1812-50.3277-13.6787-10.1585-17.8299-4.1214-40.6524 13.4884-50.9583l6.3959-3.2648 227.9959-272.2569c-97.4196-71.7202-180.6852-139.1394-222.9001-174.0037-0.8914 0.3488-1.7929 0.6755-2.7163 0.9573L50.9703 368.21990000000005c-19.7603 6.0369-39.6086-5.5652-44.3196-25.9284l-4.0314-17.4331c37.5939-18.5354 73.4029-52.2675 99.1185-97.3938 25.6536-45.0014 36.6095-93.1207 33.7564-135.271l16.6303-5.0905c19.7883-6.0639 39.6066 5.5372 44.3176 25.9134l23.466 101.49c4.1753 1.6918 8.3277 3.7145 12.4021 6.0969C232.3111 220.60130000000004 1079.6809 589.4105 993.8999 727.8114zM726.2765 215.63959999999997l10.0016 175.4477c-61.9853-45.0324-127.7291-88.278-189.2457-126.6709l93.3372-264.3802-0.4067-7.1471c-0.029-20.57 16.4305-37.2517 36.7804-37.2367 20.349 0.014 36.8394 16.7086 36.8394 37.2787l10.1565 178.2038 20.1751 11.789c8.8054 5.1525 11.8384 16.5497 6.7417 25.4867C745.713 217.06870000000004 734.9819 220.1716 726.2765 215.63959999999997z"  horiz-adv-x="1000" />

    
    <glyph glyph-name="classify" unicode="&#58906;" d="M956.43761778-126.55153038000003L622.67148402-126.55153038000003c-35.12678173 0-64.30285141 28.45420658-64.30285141 63.57866041L558.36863261 267.90115442c0 35.10349597 29.17606969 69.36637099 64.30285141 69.36637099l333.76729884 0c35.10349597 0 65.74890553-34.26287502 65.74890553-69.36637099l0-330.87402553C1022.18652445-98.09615985999994 991.54227883-126.55153038000003 956.43761778-126.55153038000003zM956.43761778 428.93829575L622.67148402 428.93829575c-35.12678173 0-64.30285141 30.62328889-64.30285141 65.75007062L558.36863261 827.00844601c0 35.10233202 29.17606969 66.47309767 64.30285141 66.47309767l333.76729884 0c35.10349597 0 65.74890553-31.36960171 65.74890553-66.47309767l0-332.32007964C1022.18652445 459.56158464 991.54227883 428.93829575 956.43761778 428.93829575zM401.67431168-126.55153038000003L66.45862969-126.55153038000003c-35.12445269 0-63.57866041 28.45420658-63.57866041 63.57866041L2.87997042 267.90115442c0 35.10349597 28.45420658 69.36637099 63.57866041 69.36637099l335.21568085 0c35.10116693 0 64.30052238-34.26287502 64.30052238-69.36637099l0-330.87402553C465.97483406-98.09615985999994 436.77547861-126.55153038000003 401.67431168-126.55153038000003zM401.67431168 428.93829575L66.45862969 428.93829575c-35.12445269 0-63.57866041 30.62328889-63.57866041 65.75007062L2.87997042 827.00844601c0 35.10233202 28.45420658 66.47309767 63.57866041 66.47309767l335.21568085 0c35.10116693 0 64.30052238-31.36960171 64.30052238-66.47309767l0-332.32007964C465.97483406 459.56158464 436.77547861 428.93829575 401.67431168 428.93829575zM396.60729913 823.38865266L72.24983325 823.38865266l0-324.35862983 324.35746588 0L396.60729913 823.38865266z"  horiz-adv-x="1024" />

    
    <glyph glyph-name="rightthree" unicode="&#58963;" d="M501.33333333-86.66666667000004c265.152 0 480 214.848 480 480C981.33333333 658.42133332 766.48533333 873.33333333 501.33333333 873.33333333 236.24533333 873.33333333 21.33333333 658.42133332 21.33333333 393.33333333 21.33333333 128.18133333000003 236.24533333-86.66666667000004 501.33333333-86.66666667000004zM501.33333333 809.33333332C730.70933333 809.33333332 917.33333333 622.70933332 917.33333333 393.33333333S730.70933333-22.66666667000004 501.33333333-22.66666667000004 85.33333333 163.95733332999998 85.33333333 393.33333333 271.95733333 809.33333332 501.33333333 809.33333332zM585.10933333 393.39733333L414.93333333 223.22133333c-12.48-12.48-12.48-32.768 0-45.248s32.768-12.48 45.248 0l192.768 192.83199999c12.48 12.48 12.48 32.768 0 45.24800001L461.46133333 607.60533333C455.18933333 613.81333333 446.99733333 616.94933332 438.80533333 616.94933332S422.48533333 613.81333333 416.21333333 607.60533333c-12.48-12.48-12.48-32.768 0-45.248L585.10933333 393.39733333z"  horiz-adv-x="1024" />

    
    <glyph glyph-name="fitness" unicode="&#58970;" d="M950.84384 303.10764500000005c-2.207271 0-4.269233 0.441045-6.415107 0.639566l0-162.366971c0-22.691815-18.381649-25.88146-41.059138-25.88146-22.671349 0-41.059138 3.189645-41.059138 25.88146L862.310458 629.044995c0 22.676465 18.387789 25.859971 41.059138 25.859971 22.676465 0 41.059138-3.183506 41.059138-25.859971l0-180.330088c2.146896 0.181125 4.207835 0.64366 6.415107 0.64366 40.398082 0 73.134671-32.742728 73.134671-73.139787C1023.978511 335.823767 991.241922 303.10764500000005 950.84384 303.10764500000005L950.84384 303.10764500000005zM739.134067-28.185690000000022c-45.347814 0-82.117253 6.350638-82.117253 51.719942L657.016815 746.889961c0 45.347814 36.769438 51.719942 82.117253 51.719942s82.117253-6.371104 82.117253-51.719942l0-723.355709C821.252343-21.83505200000002 784.482905-28.185690000000022 739.134067-28.185690000000022L739.134067-28.185690000000022zM411.506215 303.10764500000005L411.506215 467.337033l204.451462 0 0-164.229388L411.506215 303.10764500000005 411.506215 303.10764500000005zM288.335964-28.185690000000022c-45.353954 0-82.117253 6.350638-82.117253 51.719942L206.218712 746.889961c0 45.347814 36.769438 51.719942 82.117253 51.719942 45.364187 0 80.410378-6.371104 80.410378-51.719942l0-723.355709C368.746342-21.83505200000002 333.700151-28.185690000000022 288.335964-28.185690000000022L288.335964-28.185690000000022zM124.100436 115.49775699999998c-22.676465 0-41.059138 3.189645-41.059138 25.88146L83.041298 303.74618799999996c-2.14792-0.197498-4.209882-0.639566-6.415107-0.639566-40.376593 0-73.135694 32.716122-73.135694 73.110111 0 40.398082 32.759101 73.139787 73.135694 73.139787 2.206248 0 4.267187-0.461511 6.415107-0.64366L83.041298 629.044995c0 22.676465 18.381649 25.859971 41.059138 25.859971 22.692838 0 39.352263-3.183506 39.352263-25.859971l0-487.665779C163.452699 118.68740200000002 146.794297 115.49775699999998 124.100436 115.49775699999998L124.100436 115.49775699999998zM124.100436 115.49775699999998"  horiz-adv-x="1024" />

    
    <glyph glyph-name="statistical" unicode="&#58892;" d="M265.108595 286.11724962999995l0-324.28504708 152.60523876 0L417.71383376 286.11724962999995l-76.30572385 63.5897592L265.108595 286.11724962999995 265.108595 286.11724962999995zM10.76321758-38.167797449999966l152.60523876 0 0 247.98553216L10.76321758 89.00302771999998 10.76321758-38.167797449999966 10.76321758-38.167797449999966zM773.79313968 362.42297347l0-400.59077092 152.61020736 0L926.40334704 489.59255711 773.79313968 362.42297347 773.79313968 362.42297347zM519.45397241 203.45788947000005l0-241.62568692 152.60399722 0 0 317.93016923-120.81470578-101.74013744L519.45397241 203.45788947000005 519.45397241 203.45788947000005zM1028.13851709 750.29777977L735.64400299 750.29777977l120.81470578-114.45486054L544.8834186 381.49754182000004l-203.47530869 171.6847745L10.76321758 292.47709488l0-114.45486054 330.64489233 260.70522265 209.83515394-171.68477448 375.16008319 305.21544612 101.73517005-95.38029219L1028.13851709 750.29777977 1028.13851709 750.29777977zM1028.13851709 750.29777977M656.39369933 754.18745666c-35.15860522 35.13749292-81.885647 54.49521804-131.61439657 54.49521805-49.71260465 0-96.44461382-19.35772513-131.58955843-54.49894388-35.15736368-35.15239629-54.51757189-81.89434023-54.51757188-131.61315503-0.00869323-49.72502372 19.33661283-96.45579135 54.4890079-131.63054149 35.13997722-35.12010646 81.87695377-54.48031468 131.58210674-54.48031466 49.72874957 0 96.48187104 19.37387005 131.64917069 54.51757188C728.94387299 563.53367654 728.95505052 681.6025088700001 656.39369933 754.18745666L656.39369933 754.18745666 656.39369933 754.18745666zM639.24161499 508.13186017c-30.58214988-30.5771825-71.24492227-47.43369099-114.4983279-47.43369098-43.22235855 0-83.87519495 16.84781526-114.43747408 47.39767531-30.56103758 30.56848927-47.38774053 71.22256722-47.3815304 114.47597283 0 43.24719669 16.83539619 83.90500048 47.4076113 114.46479653 30.56848927 30.56103758 71.20766384 47.39022363 114.44616731 47.39022362 43.239745 0 83.88761403-16.82918605 114.46355377-47.39270792C702.3408178 673.91878181 702.3408178 571.22485407 639.24161499 508.13186017L639.24161499 508.13186017 639.24161499 508.13186017zM605.20197386 576.96125778l-64.33242409 37.2040396 0 101.46194924c0 8.56300172-6.94602957 15.50903129-15.51151437 15.5090313-8.55803434 0-15.50530545-6.94602957-15.50530545-15.5090313l0-108.56694365c0-5.75379137 7.15094486-10.57614628 11.80191584-13.245021 1.28662338-1.93738737 4.82235491-3.68972899 6.97956095-4.93040193l63.97723716-38.77630286c7.41050505-4.27839639 15.44693472-1.7361967 19.72657387 5.67803419 4.28087948 7.41547244 0.29433431 16.89128262-7.13479995 21.1721621l0 0L605.20321661 576.96125778zM605.20197386 576.96125778"  horiz-adv-x="1024" />

    
    <glyph glyph-name="movie" unicode="&#58909;" d="M953.25297778 139.65880889000005c0 0-26.13930667-85.4016-90.16092445-78.46798222-25.26435555 2.73863111-47.32131555 23.19928889-69.70368 46.94129778 61.42634667 75.8784 98.28807111 172.48938667 98.28807112 277.71904 0 244.01464889-197.78787555 441.80138667-441.77521778 441.80138666-244.01578667 0-441.82869333-197.78673778-441.82869334-441.80138666 0-243.98734222 197.81404445-441.80138667 441.82869334-441.80138667 104.59818667 0 200.64028445 36.43392 276.30705778 97.19466667 34.17429333-24.94350222 57.97774222-64.99896889 146.35804444-67.45088 124.61966222-3.46794667 141.51566222 107.17980445 141.51566222 107.17980444L953.25297778 139.65880889000005 953.25297778 139.65880889000005zM452.13696 740.82872889c65.94901333 0 119.36881778-53.45507555 119.36881778-119.36995556 0-65.93536-53.42094222-119.36199111-119.36881778-119.36199111-65.94332445 0-119.36199111 53.42663111-119.36199111 119.36199111C332.77496889 687.36796445 386.19363555 740.82872889 452.13696 740.82872889L452.13696 740.82872889zM495.34748445 386.02979555c0-25.12782222-20.36053333-45.50769778-45.50087112-45.50769777-25.14602667 0-45.51338667 20.37987555-45.51338666 45.50769777 0 25.12782222 20.36736 45.50542222 45.51338666 45.50542223C474.98808889 431.53521778 495.34748445 411.15761778 495.34748445 386.02979555L495.34748445 386.02979555zM216.44629333 265.96693332999996c-65.93422222 0-119.36881778 53.44028445-119.36881778 119.36881778 0 65.91260445 53.43573333 119.37450667 119.36881778 119.37450667 65.93649778 0 119.37792-53.4528 119.37792-119.37450667C335.82421333 319.39470222 282.38279111 265.96693332999996 216.44629333 265.96693332999996L216.44629333 265.96693332999996zM452.13696 30.903182219999962c-65.94332445 0-119.36199111 53.43914667-119.36199111 119.37564445 0 65.90236445 53.41866667 119.35630222 119.36199111 119.35630222 65.94901333 0 119.36881778-53.45393778 119.36881778-119.35630222C571.50691555 84.34346667 518.08483555 30.903182219999962 452.13696 30.903182219999962L452.13696 30.903182219999962zM686.56810667 265.96693332999996c-65.92170667 0-119.36085333 53.44028445-119.36085334 119.36881778 0 65.91260445 53.43914667 119.37450667 119.36085334 119.37450667 65.94332445 0 119.37678222-53.4528 119.37678222-119.37450667C805.94602667 319.39470222 752.51143111 265.96693332999996 686.56810667 265.96693332999996L686.56810667 265.96693332999996z"  horiz-adv-x="1024" />

    
    <glyph glyph-name="help" unicode="&#58992;" d="M512.002 896.001C229.247 896.001 0 666.718 0 383.999c0-282.773 229.247-511.996 512.002-511.996 282.742 0 511.995 229.223 511.995 511.996C1023.997 666.718 794.745 896.001 512.002 896.001L512.002 896.001zM524.534 715.079c45.996 0 83.208-37.29 83.208-83.185 0-46.001-37.213-83.242-83.208-83.242-45.893 0-83.21 37.241-83.21 83.242C441.318 677.789 478.641 715.079 524.534 715.079L524.534 715.079zM672.459 86.827L393.824 86.827l0 36.509 34.892 12.891c19.532 7.177 32.533 25.854 32.533 46.605l0 196.822c0 20.788-12.997 39.428-32.533 46.574l-34.892 12.92 0 37.295 211.18 0 0-293.614c0-20.747 12.999-39.428 32.569-46.6l34.887-12.896 0-36.505L672.459 86.82799999999997z"  horiz-adv-x="1024" />

    
    <glyph glyph-name="order" unicode="&#58890;" d="M510.19941774 896.28982272c-298.48450162 0-508.79693824-247.57220693-508.79693824-508.79693824 0-268.02654208 212.29988864-508.79693824 506.52539791-508.79693824 281.47182137 0 511.06847744 227.54866062 511.06847744 508.79693824C1018.99635598 605.39885454 847.16037689 896.28982272 510.19941774 896.28982272zM546.54172387-46.346737210000015c-5.29870734 35.58085632-15.14398606 71.17452061-20.44269226 106.75537806l-36.34230614 0c-5.29987129-35.58202141-10.60090653-71.17568569-15.89961272-106.75537806-96.50725205 0-206.69962923 65.41941077-245.31347456 102.21346247 19.30750521 27.99780295 35.93713095 50.04140089 61.32807794 86.31384975-7.82522709 7.40840903-24.82393429 28.01759573-24.98460786 27.257311-40.18331534-25.36416825-73.0094501-51.10789575-88.58538894-61.32807794-47.33325085 55.67309597-92.74890809 134.41553522-99.94192328 243.03960633 31.60246045 6.17542087 106.75654201 18.17231701 106.75654201 18.17231701s0 22.71539655 0 36.34230614c-35.58202141 5.29987129-71.17452061 12.87244573-106.75654201 18.17115306 8.71940551 105.64813255 49.57917639 193.42317227 102.21346248 245.31347456 9.75795655-8.38059577 29.99224093-19.63350699 86.31384974-61.32807794 7.40840903 7.82522709 24.61086834 22.55355904 24.98460786 24.98460786-10.74295011 17.4923685-48.69081885 68.06352441-61.32807794 88.58538894 34.07193088 31.73868317 124.17206727 93.18901191 243.0430993 102.21346248 2.20750393-0.41914595 21.63958784-68.85873778 38.61384534-109.02808121l0-329.35462002c0 2.2715392 280.67078713-329.69110187 279.38424035-329.35462002C760.37382371 28.3963483 674.55712825-37.804303929999946 546.54172387-46.346737210000015z"  horiz-adv-x="1024" />

    
    <glyph glyph-name="redact" unicode="&#58939;" d="M510.556452 851.478261L88.830299 851.478261C40.075456 851.478261 0 811.788445 0 762.828577L0-39.35031700000002C0-88.39017000000001 39.689815-128 88.649683-128L890.828576-128C939.868429-128 979.478259-87.95297300000004 979.478259-38.552460999999994L979.478259 457.895411C980.685907 461.267101 981.34375 464.900479 981.34375 468.687503L981.34375 557.730982C981.34375 575.404093 967.016864 589.730982 949.34375 589.730982 931.670637 589.730982 917.34375 575.404093 917.34375 557.730982L917.34375 501.576087 915.478259 501.576087 915.478259-38.552460999999994C915.478259-52.77120600000001 904.356563-64 890.828576-64L88.649683-64C74.999469-64 64-53.007386 64-39.35031700000002L64 762.828577C64 776.274196 75.253499 787.478261 88.830299 787.478261L597.391304 787.478261 597.391304 788.6875 608.343754 788.6875C626.016866 788.6875 640.343757 803.0143869999999 640.343757 820.6875 640.343757 838.360611 626.016866 852.687499 608.343754 852.687499L519.300275 852.687499C516.268735 852.687499 513.335653 852.265946 510.556452 851.478261ZM935.323072 806.589974C947.819846 819.086751 947.819846 839.348031 935.323072 851.8448080000001 922.826291 864.341586 902.565011 864.341586 890.068237 851.8448080000001L355.807366 317.583939C343.310588 305.08716200000003 343.310588 284.825882 355.807366 272.329105 368.304143 259.83232799999996 388.565422 259.83232799999996 401.0622 272.329105L935.323072 806.589974Z"  horiz-adv-x="1024" />

    
    <glyph glyph-name="weixin" unicode="&#58941;" d="M579.580443 384.417662C567.899374 384.417662 556.231777 373.571917 556.231777 360.220199 556.231777 349.387927 567.899374 338.542182 579.580443 338.542182 597.095311 338.542182 609.611705 349.387927 609.611705 360.220199 609.611705 373.571917 597.095311 384.417662 579.580443 384.417662L579.580443 384.417662 579.580443 384.417662ZM502.838377 497.024788C521.188569 497.024788 532.869638 508.705858 532.869638 526.220725 532.869638 544.570917 521.188569 555.416662 502.838377 555.416662 485.323509 555.416662 468.643966 544.570917 468.643966 526.220725 468.643966 508.705858 485.323509 497.024788 502.838377 497.024788L502.838377 497.024788 502.838377 497.024788ZM512.013473 895.986527C229.269617 895.986527 0.053892 666.757329 0.053892 384 0.053892 101.229198 229.269617-128 512.013473-128 794.757329-128 1023.973054 101.229198 1023.973054 384 1023.973054 666.757329 794.770802 895.986527 512.013473 895.986527L512.013473 895.986527 512.013473 895.986527ZM415.264039 254.282196C384.397453 254.282196 361.870638 259.280669 332.674701 267.633914L248.428188 225.086259 272.625651 296.829851C213.398453 338.528709 178.368717 391.086785 178.368717 455.312457 178.368717 568.768381 285.142045 655.520867 415.264039 655.520867 530.363665 655.520867 632.973843 587.118573 652.981212 490.342193 644.64144 492.026314 637.136993 492.848166 630.46787 492.848166 517.02542 492.848166 429.451082 407.766328 429.451082 305.169623 429.451082 287.654755 431.943582 271.797063 436.120204 255.11752 429.451082 254.282196 421.933161 254.282196 415.264039 254.282196L415.264039 254.282196 415.264039 254.282196ZM763.095837 172.528183 779.77538 112.479133 716.371559 148.344192C692.187569 143.345719 668.82543 135.827799 644.64144 135.827799 532.869638 135.827799 444.459976 212.569865 444.459976 307.662123 444.459976 402.767854 532.869638 479.509921 644.64144 479.509921 750.579443 479.509921 845.671701 402.767854 845.671701 307.662123 845.671701 254.282196 809.806642 206.736067 763.095837 172.528183L763.095837 172.528183 763.095837 172.528183ZM337.686648 555.416662C320.17178 555.416662 301.821588 544.570917 301.821588 526.220725 301.821588 508.705858 320.17178 497.024788 337.686648 497.024788 354.366191 497.024788 367.71791 508.705858 367.71791 526.220725 367.71791 544.570917 354.366191 555.416662 337.686648 555.416662L337.686648 555.416662 337.686648 555.416662ZM710.537761 384.417662C698.021367 384.417662 687.189095 373.571917 687.189095 360.220199 687.189095 349.387927 698.021367 338.542182 710.537761 338.542182 727.217304 338.542182 739.733698 349.387927 739.733698 360.220199 739.733698 373.571917 727.217304 384.417662 710.537761 384.417662L710.537761 384.417662 710.537761 384.417662Z"  horiz-adv-x="1024" />

    
    <glyph glyph-name="nickname" unicode="&#59003;" d="M790.47265849 569.6503808L728.58919822 569.6503808c-17.10343965 0-30.94464285-13.87033031-30.94464284-30.94464285l0-61.88346026c0-17.10343965 13.8412032-30.94464285 30.94464284-30.94464284l61.88346027 0c17.10343965 0 30.93881742 13.8412032 30.93881742 30.94464284L821.41147591 538.70573795C821.40565049 555.78005049 807.57027271 569.6503808 790.47265849 569.6503808zM883.28911075 749.46368853L140.71088925 749.46368853c-68.34967893 0-123.76692053-55.4172416-123.76692054-123.76692053l0-495.05020587c0-68.34967893 55.4172416-123.76692053 123.76692054-123.76692053l742.58404693 0c68.34385351 0 123.76109511 55.4172416 123.76109511 123.76692053L1007.05603129 625.7025934200001C1007.05020587 694.0522723500001 951.63878969 749.46368853 883.28911075 749.46368853zM542.94464285 136.47780978000003L171.64970667 136.47780978000003c-17.10343965 0-30.94464285 13.83537778-30.94464285 30.93881742s13.83537778 30.94464285 30.94464285 30.94464285l371.28911075 0c17.09761422 0 30.94464285-13.8412032 30.94464285-30.94464285S560.04225707 136.47780978000003 542.94464285 136.47780978000003zM542.94464285 260.23307947L171.64970667 260.23307947c-17.10343965 0-30.94464285 13.84702862-30.94464285 30.95046826 0 17.06848711 13.83537778 30.93881742 30.94464285 30.93881742l371.28911075 0c17.09761422 0 30.94464285-13.87033031 30.94464285-30.93881742C573.88346027 274.08010808999995 560.04225707 260.23307947 542.94464285 260.23307947zM883.28911075 445.88346027c0-34.17775218-27.70570809-61.88346027-61.88346026-61.88346027l-123.76109511 0c-34.17192675 0-61.88346027 27.70570809-61.88346027 61.88346027L635.76109511 569.6445553799999c0 34.17192675 27.71153351 61.88346027 61.88346027 61.88346027l123.76109511 0c34.17775218 0 61.88346027-27.70570809 61.88346026-61.88346027L883.28911075 445.88346027z"  horiz-adv-x="1024" />

    
    <glyph glyph-name="many" unicode="&#58884;" d="M47.11059405 847.47706469c-18.87177893 0-34.19263937-15.32086045-34.19263936-34.30267512v-338.31074829c0-19.23166057 15.32086045-34.36740204 34.19263936-34.36740203h369.92207834c19.07890505 0 34.41271088 15.14739232 34.41271088 34.36740203v338.31074829c0 18.98052014-15.32086045 34.30267511-34.41271088 34.30267512h-369.92207834zM47.11059405 321.05048747c-18.87177893 0-34.19263937-15.32086045-34.19263936-34.30138059v-338.31074829c0-19.23166057 15.32086045-34.36740204 34.19263936-34.36740202h369.92207834c19.07890505 0 34.41271088 15.14739232 34.41271088 34.36740202v338.31074829c0 18.98052014-15.32086045 34.30138059-34.41271088 34.30138059h-369.92207834zM605.94982053 321.05048747c-18.87177893 0-34.1939339-15.32086045-34.19393392-34.30138059v-338.31074829c0-19.23166057 15.32086045-34.36740204 34.19393392-34.36740202h369.92207833c19.07890505 0 34.41271088 15.14739232 34.41271088 34.36740202v338.31074829c0 18.98052014-15.32086045 34.30138059-34.41271088 34.30138059h-369.92207833zM975.87060432 847.47706469h-369.92207834c-18.87177893 0-34.1939339-15.32086045-34.19393389-34.30267512v-338.31074829c0-19.23166057 15.32086045-34.36740204 34.19393389-34.36740203h369.92207834c19.07890505 0 34.41271088 15.14739232 34.41271088 34.36740203v338.31074829c0 18.98052014-15.33251129 34.30267511-34.41271088 34.30267512zM915.85581005 547.70342622c0-10.94661563-8.72907156-19.56694597-19.58765858-19.56694599h-210.62526041c-10.7394895 0-19.46985561 8.62162489-19.46985559 19.56694599v192.62211666c0 10.80551095 8.72907156 19.53458252 19.46985559 19.53458251h210.62396587c10.86894333 0 19.58765858-8.72907156 19.58765859-19.53458251v-192.62211666z"  horiz-adv-x="1024" />

    
    <glyph glyph-name="upload" unicode="&#58968;" d="M185.22794667 514.95594667h245.70083555v-361.80992h163.64430223V514.95594667H840.26026667L512.73841778 893.87463111zM880.06769778 256.93752888999995v-240.60928H144.04835555V256.93752888999995H2.49628445v-311.39726222c0-39.09063111 31.68597333-70.76181333 70.77660444-70.76181334h877.58620444c39.07584 0 70.73336889 31.67118222 70.73336889 70.76181334V256.93752888999995H880.06769778z"  horiz-adv-x="1024" />

    
    <glyph glyph-name="paimai" unicode="&#58961;" d="M491.79306667 33.92853333000005h-7.09973334c-4.9152 20.75306667-25.12213333 36.0448-49.69813333 36.0448h-340.24106667c-24.576 0-44.78293333-15.29173333-49.69813333-36.0448h-8.192c-15.29173333 0-27.30666667-13.1072-27.30666667-28.94506666s12.01493333-28.94506667 27.30666667-28.94506667h455.4752c15.29173333 0 27.30666667 13.1072 27.30666667 28.94506667-0.54613333 15.83786667-13.1072 28.94506667-27.8528 28.94506666zM134.62186667 317.91786666999997l253.952-147.456c21.84533333-12.56106667 50.7904-3.2768 64.44373333 21.2992 14.19946667 24.02986667 7.64586667 54.0672-14.19946667 66.62826666l-253.952 147.456c-21.84533333 12.56106667-50.7904 3.2768-64.44373333-21.2992-13.65333333-24.02986667-7.64586667-53.52106667 14.19946667-66.62826666zM986.58986667 210.32960000000003l-445.6448 235.9296 55.15946666 96.11946667-253.952 147.456-150.7328-262.144 253.952-147.456 44.78293334 77.55093333 426.53013333-269.78986667c29.4912-16.93013333 68.8128-3.2768 88.4736 30.03733334 19.11466667 33.86026667 10.92266667 74.82026667-18.56853333 92.29653333zM423.5264 365.43146666999996l-147.456 85.74293333 87.92746667 152.91733333 147.456-85.74293333zM356.89813333 704.58026667l253.952-147.456c21.84533333-12.56106667 50.7904-3.2768 64.44373334 21.2992 14.19946667 24.02986667 7.64586667 54.0672-14.19946667 66.62826666l-253.952 147.456c-21.84533333 12.56106667-50.7904 3.2768-64.44373333-21.2992-14.19946667-24.02986667-7.64586667-54.0672 14.19946666-66.62826666z"  horiz-adv-x="1024" />

    
    <glyph glyph-name="women" unicode="&#59006;" d="M808.51828267 126.88410133000002zM381.86881707 217.04607786999998s-184.33976747-87.823696-205.3209536-308.97200427h302.4977728l-97.1768192 308.97200427zM808.51828267 126.88410133000002V551.6146688c-6.65334293 310.23015467-311.78864427 308.3123488-311.78864534 308.31234987-319.82245867-35.12991467-289.90862507-330.97216-289.908624-330.97216l0.240272-414.5397696c96.0366208 176.00670613 289.42808107 171.4513728 289.42808107 171.4513728 216.28935893 3.297184 312.02563947-158.9768992 312.02891627-158.98236054zM261.9611968 552.04825067l2.4726144 0.71535466-2.4726144-0.71535466z m-2.8352064-0.82020054c-0.08627947-0.02402667-0.08955627-0.02511893 0 0z m0.03058027 0.00873707l1.11180266 0.32109013-1.11180266-0.32109013z m1.17951573 0.34184107l0.73938133 0.2140608-0.73938133-0.2140608z m245.36442453-229.73802347l1.36408854-0.16928213-1.36408854 0.16928213z m5.1134208-0.6356288l2.0696128-0.25774507-2.0696128 0.25774507z m2.58182827-0.32109013l9.54097387-1.18716054-9.54097387 1.18716054z m15.98790187-1.98879467l1.18279253-0.14744-1.18279253 0.14744z m3.11370346-0.38771093l1.6873632-0.20969174-1.6873632 0.20969174z m6.25034134-0.77760747l6.55832746-0.81583147-6.55832746 0.81583147z m7.66248533-0.95344213l5.42031253-0.6738528-5.42031253 0.6738528z m8.14739627-1.01350934l5.67150613-0.70552533-5.67150613 0.70552533z m8.5514912-1.06374826l7.1579136-0.89009814-7.1579136 0.89009814z m9.50602346-1.18279254l0.754672-0.09392426-0.754672 0.09392426z m4.89717547-0.60941653l2.52285333-0.31344533-2.52285333 0.31344533z m10.41905707-1.2952832l2.6167776-0.3254592-2.6167776 0.3254592z m7.19177066-0.89446613z m3.78755627-0.47180694l0.598496-0.0742656-0.598496 0.0742656z m4.2145856-0.52422933l0.03494827-0.004368-0.03494827 0.004368z m0.75685547-0.09392427l0.5144-0.06443626-0.5144 0.06443626z m0.9840224-0.12232l0.4073696-0.05023893c-0.07098987 0.0076448-0.20532267 0.02511893-0.4073696 0.05023893z m-104.8993728 13.0489408l0.15945386-0.01965866-0.15945386 0.01965866C263.0533408 351.9280896 276.0018048 556.1110272000001 276.0018048 556.1110272000001c38.3670304 10.97058987 115.57945173 88.66355413 115.57945173 88.6635552l-0.08737173 0.06771307 0.08737173-0.06771307c137.699744-106.346464 349.25574827-87.52335573 349.25574827-87.52335573v-2.63752854l0.05351467 0.53624214-0.05351467-0.53624214C716.13925227 306.66853547000005 499.96675307 322.55377493000003 499.96675307 322.55377493000003z m3.77226666-0.46853013l-1.3881152 0.17255893 1.3881152-0.17255893z m-2.28476586 0.28395733l-0.70115627 0.08737174 0.70115627-0.08737174z m-1.01678614 0.12668907l-0.23153493 0.02839573 0.23153493-0.02839573zM265.01264853 552.9317952l2.55670934 0.7393824-2.55670934-0.7393824z m4.04093334 1.16859413l2.6091328 0.754672-2.6091328-0.754672z m2.7751392 0.8027264l0.54279573 0.15726934-0.54279573-0.15726934z m1.64476906 0.47617494l0.32436694 0.09392426-0.32436694-0.09392426z m0.9206784 0.2664832l0.81364694 0.23590293-0.81364694-0.23590293z m1.1478432 0.33201173l0.40955414 0.117952-0.40955414-0.117952z m54.9381376 135.8387296l0.1933088-0.1485312-0.1933088 0.1485312z m0.3156288-0.24354773l1.05282774-0.8103712-1.05282774 0.8103712z m1.55849067-1.20026667a2.62114667 2.62114667 0 0 0 0.06552853-0.05023893l-0.06552853 0.05023893z m0.76122453-0.58648213l0.181296-0.13979414a9.06152213 9.06152213 0 0 1-0.181296 0.13979414z m0.68914347-0.5296896l0.30252373-0.2326272a52.11603627 52.11603627 0 0 0-0.30252373 0.2326272z m6.77566293-5.21717334z m2.60258027-2.00299306l2.79152107-2.14933974-2.79152107 2.14933974z m6.31259413-4.86004267l2.2203296-1.70920533-2.2203296 1.70920533z m3.95793067-3.04708267l2.1602624-1.66333546-2.1602624 1.66333546z m4.056224-3.1235328l1.38920853-1.06920853-1.38920853 1.06920853z m5.98276693-4.60557226l0.6989728-0.53733547-0.6989728 0.53733547z m4.47560747-3.4457152l0.32327467-0.24900907-0.32327467 0.24900907z m2.96954133-2.2869504l0.6596544-0.50784747-0.6596544 0.50784747z m3.693632-2.84394347l4.56843947-3.51670507-4.56843947 3.51670507z m5.36461227-4.1293984l4.07151467-3.1344544-4.07151467 3.1344544z m7.60569387-5.85607787l0.2031392-0.15617706-0.2031392 0.15617706z m2.25200106-1.73432533l0.37569814-0.28941867-0.37569814 0.28941867z m0.9436128-0.72627627l0.26539094-0.2042304-0.26539094 0.2042304z m350.367552-87.46874773l0.14307094 1.44162987c-0.04586987-0.47617493-0.09501653-0.9621792-0.14307094-1.44162987z m0.29706347 2.97500053l0.95234987 9.562816-0.95234987-9.562816z m2.59930347 26.1131712l0.47289813 4.74864427-0.47289813-4.74864427z m0.67494506 6.7723872l0.28723414 2.88872214-0.28723414-2.88872214z m0.65091734 6.54085227l0.36477653 3.6674208-0.36477653-3.6674208z m0.64654933 6.4949824l0.328736 3.30264533-0.328736-3.30264533z m0.3735136 3.74824l0.75248747 7.55873067-0.75248747-7.55873067z m1.083408 10.87885013l0.5853888 5.8811968-0.5853888-5.8811968z m1.30620373 13.12102187l0.03822507 0.38225067-0.03822507-0.38225067z m0.34293334 3.44462293l0.06771306 0.68259094-0.06771306-0.68259094z m0.33528853 3.37254187l0.13214933 1.32586347-0.13214933-1.32586347z m0.90211093 9.06152213l0.17911254 1.7954848-0.17911254-1.7954848z m0.23044267 2.31097707l0.03822507 0.37897387-0.03822507-0.37897387z m0.19658667 1.97350507l0.19767786 1.98551786-0.19767786-1.98551786z m0.2970624 2.98810666l0.12778133 1.28217707-0.12778133-1.28217707z m0.26102293 2.62114667l0.0218432 0.22061333-0.0218432-0.22061333z m0.26211413 2.62551467l0.0775424 0.77979093-0.0775424-0.77979093z m0.1365184 1.37501013l0.0185664 0.18457173-0.0185664-0.18457173z m0.0262112 0.2599296l0.02293547 0.23044267a57.8399648 57.8399648 0 0 1-0.02293547-0.23044267zM642.58223893 217.04607786999998L530.83949013-91.92592639999998h317.18383787s-24.5175488 227.08192853-205.44108907 308.97200427z"  horiz-adv-x="1024" />

    
    <glyph glyph-name="right" unicode="&#59031;" d="M512 832c-247.4 0-448-200.6-448-448s200.6-448 448-448 448 200.6 448 448-200.6 448-448 448zM649.7 361.3l-210.2-209.9c-12.5-12.4-32.7-12.4-45.2 0.1s-12.5 32.8 0 45.3l187.6 187.2-187.1 187.2c-12.5 12.5-12.5 32.8 0 45.3s32.8 12.5 45.3 0l209.6-209.9c12.5-12.5 12.5-32.8 0-45.3z"  horiz-adv-x="1024" />

    
    <glyph glyph-name="men" unicode="&#59190;" d="M933.78332445-82.28181332999998c-17.97802667 0-32.60871111 14.28024889-32.60871112 31.82705778 0 196.49649778-174.35306667 356.36110222-388.66147555 356.36110222-3.06744889 0-6.13717333-0.03527111-9.19210667-0.09898667a33.42563555 33.42563555 0 0 0-7.24992-0.78848c-2.99576889 0-5.99267555 0.04437333-8.96796444 0.13425778-203.73504-12.11050667-363.26968889-168.22499555-363.26968889-355.60675556 0-17.54680889-14.62840889-31.82705778-32.60643556-31.82705777-17.98030222 0-32.60871111 14.28024889-32.60871111 31.82705777 0 91.21678222 31.19786667 178.03150222 90.21895111 251.05521778 51.97596445 64.30378667 123.99957333 114.24312889 204.72945778 142.36558222C264.78250667 394.30826667 210.59584 490.00106667 210.59584 598.3573333300001c0 158.79850667 134.43754667 287.99203555 299.68156445 287.99203556 165.20647111 0 299.61557333-129.19239111 299.61557333-287.99203556 0-75.33226667-30.10673778-146.59697778-84.77354667-200.67328-6.20657778-6.10759111-14.44636445-9.45834667-23.21749333-9.45834666-8.62321778 0-16.75264 3.25745778-22.89322667 9.17048888-6.20202667 5.96081778-9.65518222 13.93436445-9.71093333 22.44266667-0.05575111 8.49123555 3.28135111 16.50232889 9.38666667 22.55189333 42.54378667 42.04088889 65.96949333 97.41880889 65.96949333 155.94609778 0 123.6992-105.15114667 224.33792-234.39815111 224.33792-129.28568889 0-234.46641778-100.63644445-234.46641778-224.33792 0-125.69827555 90.43968-224.26282667 210.45134222-229.47612444a497.65831111 497.65831111 0 0 0 26.28039111 0.69518222c250.27015111 0 453.87434667-188.41372445 453.87434667-420.00952889-0.00341333-17.54794667-14.63409778-31.82819555-32.61212444-31.82819555z"  horiz-adv-x="1024" />

    
    <glyph glyph-name="letter" unicode="&#58880;" d="M971.62581333 323.41560889000004c13.98101333 0 25.04931555 11.06830222 25.04931556 25.04931556v323.89347555c0 19.80643555-6.40796445 38.44778667-16.89372444 53.59388445-0.58254222 0.58254222-0.58254222 1.74762667-1.16508445 2.33016888-0.58254222 1.16508445-1.74762667 1.74762667-2.91271111 2.33016889-17.47626667 22.13660445-43.69066667 36.11761778-73.98286222 36.11761778h-786.432c-52.4288 0-94.95438222-42.52558222-94.95438222-94.95438222v-574.96917333c0-52.4288 42.52558222-94.95438222 94.95438222-94.95438223h786.432c52.4288 0 94.95438222 42.52558222 94.95438222 94.95438223v79.22574222c0 13.98101333-11.06830222 25.04931555-25.04931556 25.04931555s-25.04931555-11.06830222-25.04931555-25.04931555v-73.98286222c0-27.37948445-22.13660445-50.09863111-50.09863111-50.09863112h-776.52878222c-27.37948445 0-50.09863111 22.13660445-50.09863112 50.09863112v565.06595555c0 2.91271111 0.58254222 5.24288 0.58254222 8.15559111l436.90666667-356.51584c4.07779555-2.91271111 8.15559111-4.07779555 12.81592889-4.66033778h8.15559111c4.66033778 0.58254222 8.73813333 1.74762667 12.81592889 4.66033778l404.86684444 351.85550222c0-1.16508445 0.58254222-2.33016889 0.58254223-3.49525333V348.46492445c0.58254222-13.39847111 11.65084445-25.04931555 25.04931555-25.04931556z m-851.09418666 393.79854222h776.52878222c6.40796445 0 12.81592889-1.16508445 18.64135111-3.49525333l-390.30328889-341.36974223-418.84785778 342.53482667c4.66033778 1.74762667 9.32067555 2.33016889 13.98101334 2.33016889z"  horiz-adv-x="1024" />

    
    <glyph glyph-name="time" unicode="&#58912;" d="M512 882.2491136c-275.11687282 0-498.19090034-223.07402752-498.19090034-498.30732686C13.80909966 108.82491391999997 236.88312718-114.13268706999997 512-114.13268706999997S1010.19090034 108.82491391999997 1010.19090034 383.82535907 787.11687282 882.2491136 512 882.2491136z m218.41694947-578.52549234H439.69886663V635.88969699c0 22.81968185 18.51188451 41.44799289 41.44799289 41.4479929 22.81968185 0 41.44799289-18.51188451 41.44799289-41.4479929v-249.15366342h207.82209706c22.93610837 0 41.44799289-18.62831104 41.4479929-41.56441942s-18.51188451-41.44799289-41.4479929-41.44799289z"  horiz-adv-x="1024" />

    
    <glyph glyph-name="left" unicode="&#58942;" d="M739.038 878.031c13.015 0 26.02-4.978 35.941-14.893 19.869-19.869 19.869-52.002 0-71.872l-391.948-391.95 397.633-397.636c19.873-19.866 19.873-51.999 0-71.872-19.869-19.873-51.999-19.873-71.872 0l-433.571 433.574c-19.873 19.873-19.873 51.999 0 71.872l427.878 427.881c9.181 9.201 21.877 14.896 35.902 14.896 0.013 0 0.025 0 0.037 0z"  horiz-adv-x="1024" />

    
    <glyph glyph-name="bangzhu" unicode="&#58971;" d="M620.65777778 630.8977777800001c-27.30666667 13.19822222-58.70933333 19.68355555-94.43555556 19.68355555-38.34311111 0-71.90755555-7.85066667-100.69333333-23.552-28.78577778-15.70133333-50.63111111-35.61244445-65.64977778-59.50577778-15.01866667-24.00711111-22.528-47.67288889-22.528-70.99733333 0-11.264 4.77866667-21.84533333 14.22222222-31.51644444s21.04888889-14.56355555 34.816-14.56355556c23.32444445 0 39.25333333 13.88088889 47.55911112 41.64266667 8.87466667 26.51022222 19.68355555 46.64888889 32.42666666 60.30222222s32.65422222 20.48 59.73333334 20.48c23.09688889 0 41.984-6.71288889 56.54755555-20.25244444 14.67733333-13.53955555 21.95911111-30.15111111 21.95911111-49.83466667 0-10.01244445-2.38933333-19.456-7.168-27.98933333s-10.69511111-16.384-17.74933333-23.43822222-18.31822222-17.408-34.13333333-31.17511112C527.58755555 404.48 513.36533333 390.82666667 502.784 379.44888889000003c-10.58133333-11.37777778-19.00088889-24.68977778-25.48622222-39.82222222-6.37155555-15.13244445-9.55733333-32.99555555-9.55733333-53.70311112 0-16.49777778 4.43733333-28.89955555 13.08444444-37.20533333 8.76088889-8.41955555 19.456-12.51555555 32.31288889-12.51555555 24.576 0 39.25333333 12.74311111 43.91822222 38.34311111 2.73066667 12.06044445 4.77866667 20.48 6.03022222 25.25866667 1.36533333 4.77866667 3.29955555 9.55733333 5.68888889 14.336 2.50311111 4.77866667 6.25777778 10.01244445 11.264 15.8151111s11.71911111 12.51555555 20.13866667 20.13866667c30.26488889 27.07911111 51.2 46.30755555 62.91911111 57.68533333 11.71911111 11.37777778 21.73155555 25.03111111 30.26488889 40.73244445 8.53333333 15.70133333 12.74311111 34.01955555 12.74311111 54.95466667 0 26.51022222-7.39555555 51.08622222-22.30044444 73.728-14.67733333 22.64177778-35.84 40.50488889-63.14666667 53.70311111zM517.46133333 202.63822222c-15.70133333 0-29.01333333-5.23377778-39.82222222-15.81511111s-16.27022222-23.552-16.27022222-39.13955556c0-17.408 5.57511111-31.06133333 16.72533333-40.73244444 11.264-9.67111111 24.34844445-14.56355555 39.25333333-14.56355556 14.56355555 0 27.30666667 4.89244445 38.34311112 14.79111112s16.61155555 23.32444445 16.61155555 40.50488888c0 15.47377778-5.23377778 28.55822222-15.81511111 39.13955556-10.46755555 10.46755555-23.552 15.81511111-39.02577778 15.81511111zM512 893.72444445C230.96888889 893.72444445 2.27555555 665.03111111 2.27555555 384s228.69333333-509.72444445 509.72444445-509.72444445 509.72444445 228.69333333 509.72444445 509.72444445S793.03111111 893.72444445 512 893.72444445z m0-943.90044445c-239.38844445 0-434.176 194.78755555-434.176 434.176S272.61155555 818.176 512 818.176 946.176 623.38844445 946.176 384 751.38844445-50.176000000000045 512-50.176000000000045z"  horiz-adv-x="1024" />

    
    <glyph glyph-name="activisttwo" unicode="&#58885;" d="M855.27514027 65.11881492999998c-16.74808853 20.14625173-38.83614827 55.7056-57.95081387 92.53925867a569.19229653 569.19229653 0 0 0-17.90103787 37.25842987 147.88077013 147.88077013 0 0 1 65.839408 123.183408 147.6380448 147.6380448 0 0 1-147.456 147.82008853 147.6380448 147.6380448 0 0 1-147.3953184-147.82008853c0-52.6108448 27.6100736-100.1244448 71.11869547-126.5208896-2.42725973-8.61677013-6.85700693-20.02488853-12.7431104-32.5859552-15.71650347-33.43549653-38.41137813-68.26666667-61.40965973-92.53925974l307.8978368-1.334992z m-195.39437014 169.30133334a91.9324448 91.9324448 0 0 0-53.52106666 83.6797632c0 50.7297184 40.96 91.8717632 91.50767466 91.87176213 50.48699307 0 91.44699307-41.1420448 91.446992-91.87176213 0-36.59093333-21.3598816-69.17688853-54.0065184-83.861808-13.2892448-6.06814827-17.11217813-16.5053632-17.11217813-27.36734827 0-3.64088853 0.60681493-7.09973333 1.51703787-10.86198507 1.21362987-4.8545184 3.2161184-10.67994027 6.06814826-17.6583104 5.0365632-12.56106667 12.80379307-28.94506667 21.90601387-46.48201493 10.31585173-19.7821632 21.3598816-39.2002368 32.28254827-56.67650453h-154.13096214c44.54020693 64.92918507 71.36142187 142.11602987 34.0423104 159.228208z m-173.00290346-211.96041494a27.9134816 27.9134816 0 0 0 27.7921184 27.9134816h366.33410346c15.35241493 0 27.7921184-12.43970347 27.7921184-27.9134816v-67.96325973a27.9134816 27.9134816 0 0 0-27.7921184-27.97416213H514.66998507a27.8528 27.8528 0 0 0-27.7921184 27.9134816v67.96325866z m-55.9483264 0v-67.96325973a83.7404448 83.7404448 0 0 1 83.7404448-83.92248853h366.33410346c46.23928853 0 83.7404448 37.6225184 83.7404448 83.861808v67.96325866a83.7404448 83.7404448 0 0 1-83.7404448 83.92248854H514.66998507c-46.23928853 0-83.7404448-37.6225184-83.7404448-83.86180694zM319.45765973-73.53837012999998H193.78631147a79.12865173 79.12865173 0 0 0-78.5825184 79.61410346V761.86358507c0 44.0547552 35.01321493 79.61410347 77.91502186 79.61410346h637.76237014c42.8411264 0 77.91502187-35.68071147 77.91502186-79.43205866v-220.63786667a27.9134816 27.9134816 0 0 1 55.9483264 0V762.04562987c0 74.45617813-59.95330347 135.31970347-133.86334826 135.31970346H193.11881493c-73.9707264 0-133.86334827-60.8028448-133.86334826-135.50174826v-755.72717014c0-74.82026667 60.13534827-135.56242987 134.5308448-135.56242986h125.61066666a27.9134816 27.9134816 0 0 1 0 55.9483264zM246.5185184 650.02761493h291.99928853a27.9134816 27.9134816 0 0 1 0 55.8876448H246.5185184a27.9134816 27.9134816 0 1 1 0-55.8876448z m0-161.83751146h132.7104a27.9134816 27.9134816 0 0 1 0 55.9483264H246.5185184a27.9134816 27.9134816 0 0 1 0-55.9483264z"  horiz-adv-x="1024" />

    
    <glyph glyph-name="xingxing" unicode="&#58924;" d="M749.548 264.38l0.028 0.166 0.244 0.423 0.104-0.315zM905.99 452.807c7.458 7.824 8.544 20.07 1.97 29.132-3.602 4.966-8.838 8.015-14.434 9.025l-0.027 0.086-249.452 36.443-0.383 0.52 0.208-0.638-0.398 0.167-0.198 0.223-111.841 225.877-0.06-0.001c-5.157 9.499-16.476 14.292-27.12 10.818-5.833-1.903-10.34-5.95-13.022-10.965h-0.092L379.99 527.543l-1.536-0.537-248.036-36.042-0.02-0.058c-10.63-1.955-18.697-11.229-18.697-22.425 0-6.135 2.448-11.677 6.384-15.78l-0.028-0.086 180.471-175.916 0.001-0.346-42.858-247.768 0.048-0.036c-1.44-10.711 4.871-21.26 15.514-24.735 5.831-1.903 11.862-1.296 16.983 1.17l0.073-0.052 223.308 116.994 0.614-0.196-0.487 0.355 0.008 0.002 0.724-0.175 222.688-117.294 0.048 0.036c9.745-4.675 21.728-1.923 28.315 7.13 3.61 4.96 4.89 10.881 4.124 16.516l0.072 0.053-42.423 248.5 180.728 175.896-0.02 0.057zM724.87 276.81l0.024 0.148 0.219 0.379 0.092-0.283-0.336-0.244z m-50.08 16.909l38.432-224.062L512 175.444 310.78 69.656l38.428 224.062L186.418 452.4l224.97 32.69L512 688.948 612.608 485.09l224.973-32.69L674.79 293.718z"  horiz-adv-x="1024" />

    
    <glyph glyph-name="number" unicode="&#58894;" d="M803.27111111 837.08839481c0 0.06472704 0.16181703-0.06472704 0 0z m0-906.17678962V837.08839481H220.72888889v-906.17678962h582.54222222zM156.00197518 837.08839481c0 35.72925667 28.80347705 64.72691371 64.72691371 64.7269137h582.54222222c35.89107371 0 64.72691371-28.80347705 64.72691371-64.7269137v-906.17678962c0-35.72925667-28.80347705-64.72691371-64.72691371-64.7269137H220.72888889c-35.89107371 0-64.72691371 28.80347705-64.72691371 64.7269137V837.08839481z m0-776.6582363C156.00197518 96.12705223 184.80545223 125.09234517000004 220.43761778 125.09234517000004H803.59474517c35.59980259 0 64.43564259-28.70638592 64.4356426-64.66218666v-129.58328036C867.99802482-104.85001442999999 839.19454777-133.81530851000002 803.56238222-133.81530851000002H220.40525483A64.40327851 64.40327851 0 0 0 156.00197518-69.15312185000005v129.58328036zM512-69.08839480999995a64.72691371 64.72691371 0 1 1 0 129.45382742 64.72691371 64.72691371 0 0 1 0-129.45382742z"  horiz-adv-x="1024" />

    
    <glyph glyph-name="instock" unicode="&#58910;" d="M911.104-95.67999999999995a55.744 55.744 0 0 0-50.432-32.32H163.328a55.68 55.68 0 0 0-55.552 55.488V498.688l-25.984-18.24A52.096 52.096 0 0 0 9.472 492.8 51.84 51.84 0 0 0 22.4 565.12L481.28 886.4A52.096 52.096 0 0 0 512 895.808a52.096 52.096 0 0 0 30.72-9.408l458.816-321.28a51.84 51.84 0 0 0 13.056-72.256 52.096 52.096 0 0 0-72.32-12.416l-26.048 18.24v-198.72a226.944 226.944 0 1 1-35.2-365.568l30.08-30.08z m-494.72 479.488c-6.72-1.088-12.224-6.464-12.16-12.16v-49.088c0-6.464 7.232-12.16 14.976-12.16h118.016c7.68 0.128 14.912 5.76 14.976 12.16v49.152c0 6.4-7.232 12.16-14.912 12.16H419.2a9.344 9.344 0 0 1-2.816 0z m-188.608 0c-6.784-1.088-12.288-6.464-12.16-12.16v-49.088c0-6.464 7.168-12.16 14.976-12.16h118.016c7.68 0.128 14.912 5.76 14.976 12.16v49.152c0 6.4-7.232 12.16-14.912 12.16H230.592a9.344 9.344 0 0 1-2.816 0z m188.608 121.28c-6.72-1.088-12.224-6.464-12.16-12.16v-49.088c0-6.464 7.232-12.16 14.976-12.16h118.016c7.68 0.128 14.912 5.76 14.976 12.224v49.088c0 6.4-7.232 12.16-14.912 12.16H419.2a9.344 9.344 0 0 1-2.816 0z m-188.608 0c-6.784-1.088-12.288-6.464-12.16-12.16v-49.088c0-6.464 7.168-12.16 14.976-12.16h118.016c7.68 0.128 14.912 5.76 14.976 12.224v49.088c0 6.4-7.232 12.16-14.912 12.16H230.592a9.344 9.344 0 0 1-2.816 0z m0 121.28c-6.784-1.088-12.288-6.464-12.16-12.16v-49.088c0-6.4 7.168-12.16 14.976-12.16h118.016c7.68 0.128 14.912 5.76 14.976 12.224v49.088c0 6.4-7.232 12.16-14.912 12.16H230.592a9.344 9.344 0 0 1-2.816 0z m763.008-691.264a21.248 21.248 0 1 0-30.08-30.08l-93.312 93.376a170.24 170.24 0 1 0 30.08 30.08l93.312-93.376z m-355.392 197.76c0-70.4 57.216-127.68 127.616-127.68s127.616 57.216 127.616 127.68c0 70.4-57.216 127.616-127.616 127.616s-127.616-57.216-127.616-127.616z"  horiz-adv-x="1024" />

    
    <glyph glyph-name="home" unicode="&#58881;" d="M956.02915555 460.90012445l-356.76046222 371.03274666c-22.17756445 23.03544889-51.81098667 35.71598222-83.56864 35.71598222s-61.39107555-12.68053333-83.56636444-35.71598222l-356.76273778-371.03274666c-36.82076445-38.2976-32.07281778-71.40010667-25.99139556-85.22752 4.34631111-9.80992 18.99178667-36.77639111 61.16238223-36.77639112h52.29795555v-285.43089778c0-64.80327111 46.57379555-125.82115555 112.77084445-125.82115555h151.87285333v302.06862222c0 32.38684445-4.90496 50.432 28.19982222 50.432h120.02986667c33.10592 0 28.19868445-18.04401778 28.19868445-50.432v-302.06976h151.8739911c66.18339555 0 112.77084445 61.01560889 112.77084445 125.82115556v285.43203555h52.29795555c42.17173333 0 56.832 26.96647111 61.16238223 36.77639112 6.08142222 13.82741333 10.81571555 46.92992-25.99139556 85.22752zM920.85816889 397.64650667h-111.10741334v-344.18119112c0-32.38684445-20.88618667-67.06972445-53.96252444-67.06972444h-93.06339556v243.31832889c0 64.80327111-20.79971555 109.18001778-87.01041777 109.18001778h-120.02872889c-66.22549333 0-87.01041778-44.37674667-87.01041778-109.18001778v-243.31946667h-93.06225778c-33.09226667 0-53.96138667 34.68174222-53.96138666 67.06972445v344.18346667h-111.10741334c-1.03310222 0-1.97973333 4.04593778-2.83989333 4.10168888 2.03776 3.55783111 5.55121778 12.56561778 11.37436445 18.61745778l356.79118222 370.77447111c10.65756445 11.10129778 25.70353778 17.90065778 40.29098666 17.75729778 14.58858667 0.14336 28.71637333-6.656 39.36028445-17.75729778l356.81848889-370.77447111c5.79470222-6.05184 9.32408889-15.05962667 11.36071111-18.61745778-0.86243555-0.05688889-1.80792889-4.10168889-2.84216889-4.10168888z"  horiz-adv-x="1024" />

    
    <glyph glyph-name="scancode" unicode="&#58917;" d="M8.89535374 418.42294898h1006.20929252v-68.84589796H8.89535374zM88.33292971 556.11474717H8.89535374v185.35434353c0 76.78965646 55.60630272 132.39595918 132.39595919 132.39596032h211.83353514v-79.43757596H141.29131293c-39.71878798 0-50.31046485-13.23959637-50.31046486-52.95838436l-2.64791836-185.35434353zM88.33292971 211.88525283H8.89535374v-185.35434353c0-76.78965646 55.60630272-132.39595918 132.39595919-132.39596032h211.83353514v79.43757596H141.29131293c-39.71878798 0-50.31046485 15.88751474-50.31046486 55.60630386L88.33292971 211.88525283zM935.66707029 211.88525283h79.43757597v-185.35434353c0-76.78965646-55.60630272-132.39595918-132.39595919-132.39596032h-211.83353514v79.43757596h211.83353514c39.71878798 0 50.31046485 15.88751474 50.31046486 55.60630386l2.64791836 182.70642403zM1015.10464626 556.11474717h-79.43757597v185.35434353c0 39.71878798-39.71878798 52.95838435-79.43757482 52.95838436h-185.35434354v79.43757596l188.0022619-2.6479195c76.78965646 0 156.22723243-52.95838435 156.22723243-129.74804082v-185.35434353z"  horiz-adv-x="1024" />

    
    <glyph glyph-name="qian" unicode="&#58914;" d="M696.48076547 496.76463977c-159.40426462 0-288.58494419-129.20268674-288.58494419-288.58494421S537.098508-80.40265954999995 696.48076547-80.40265954999995 985.06312059 48.798732640000026 985.06312059 208.17969556000003s-129.20139219 288.58494419-288.58364966 288.58494421z m131.83059943-378.81426173c-4.30822337-27.94908128-19.83879902-89.03575325-104.01615013-95.13432305v-53.50973945h-59.45296466v53.08901451c-35.52601378 4.99432865-68.26877029 14.18555038-101.93841619 25.4532115l17.85168276 69.85846328c26.68820101-10.40549863 61.84009324-21.563124 92.79250332-25.14122776 41.97669799-4.90630005 70.30119538 3.75416098 72.93040259 34.17839944 5.9872395 53.33368225-181.05671173 62.72296834-179.28837246 158.93952538-2.56318578 70.67790602 48.71606423 101.47626604 99.81796251 105.73918056v55.63148768h59.43225205v-53.0683019c33.75767451-0.44143755 60.49118435-7.68955733 86.51658176-19.08796681l-16.48206127-65.8402165c-26.15873485 9.85531986-52.89095017 19.08926135-84.90488162 19.08926135-20.72296865 0-64.24793442-0.06472691-65.77160596-28.6092958 0-49.22481778 82.31968869-51.74398925 109.64998068-63.36505932 19.92812215-8.46239668 33.80298335-16.74744162 47.98594465-30.59900112 24.76710622-24.19233122 29.89347777-55.36740187 24.87714197-87.62341199zM394.28634043 858.54536691c-196.27789275 0-355.35075555-78.91764211-355.35075556-176.28374913 0-97.34409987 159.07286282-176.28374914 355.35075556-176.28374914 196.23387843 0 355.30674125 78.91764211 355.30674126 176.28374914 0 97.36610702-159.07286282 176.28374914-355.30674126 176.28374913z m162.32085934-231.40648327c-5.30242877-17.07884341-24.43570442-54.37190195-128.07643844-58.10664487v-32.67544051H355.33497837v32.43336186c-43.72303013 3.04863763-84.06472628 8.68246818-125.53525981 15.57588449l21.98384893 42.66150872c32.85279227-6.36265561 76.11108315-13.16674877 114.24559154-15.35451843 51.67537872-2.98261618 86.56189061 2.29780543 89.78658545 20.87831325 7.37886815 32.58741191-222.92207945 38.3105656-220.75761147 97.07742499-3.15867339 43.17285136 60.0057325 61.99543783 122.88404544 64.58063075v33.95703341h73.1737758v-32.43336187c41.58056928-0.24207867 74.47737584-4.68363947 106.51201992-11.64307721L517.34644306 743.8816395c-32.21199582 6.00924667-65.10880237 11.66508436-104.54691081 11.66508437-25.51664387 0-79.07039763-0.0440143-80.9500672-17.47626666 0-30.06824044 101.34292859-31.61521367 134.99186188-38.68468717 24.54444563-5.17038587 41.62328905-10.22944142 59.07754857-18.71384526 30.53297968-14.77974345 36.82961383-33.8249905 30.68832427-53.53174661zM506.27814083 460.75317413c-35.23992083-5.8111823-72.82036685-9.08118597-111.9918004-9.08118598-169.12624703 0-310.34742708 58.65811817-346.27086413 137.15632988-5.76587346-12.5932683-9.07989143-25.67198846-9.07989143-39.12741927 0-97.34409987 159.07286282-176.28374914 355.35075556-176.28374913 9.54463067 0 18.88990245 0.35340895 28.23517424 0.70681789 21.9825544 34.09037085 50.41708752 63.58513083 83.75662616 86.62920661zM739.85038665 509.31389377c6.14128957 12.96868441 9.72068788 26.44612235 9.72068788 40.3637033 0 13.47873248-3.31401797 26.53544549-9.08118598 39.12871381-12.76932551-27.92577959-39.08211042-53.2676608-75.02884914-74.41005986 5.05905556 0.24207867 10.00807538 0.77283935 15.11243979 0.77283935 20.30353825 0 40.0996175-2.07643938 59.27690745-5.8551966zM394.28634043 335.68135901999995c-169.12624703 0-310.34742708 58.65811817-346.27086413 137.15632987-5.76587346-12.5932683-9.07989143-25.67198846-9.07989143-39.12741926 0-94.5815552 150.27906434-171.55609537 338.80267283-175.8630242 4.50628773 27.3950189 12.54925401 53.57576091 23.79361343 78.01146532-2.40784118-0.0440143-4.81568237-0.17735173-7.2455307-0.17735173zM374.09283792 220.13346195999998c-160.04506107 4.46227342-291.58956752 61.37405947-326.07736162 136.71359779-5.76587346-12.5932683-9.07989143-25.67198846-9.07989143-39.12741925 0-95.11231589 151.98008763-172.43897047 342.0286622-175.9303402-4.7289483 21.40907394-7.40216983 43.59098722-7.40216983 66.41369695 0 3.99882871 0.35340895 7.93034145 0.53076068 11.93046471zM48.0154763 240.85643060999996c-5.76587346-12.5932683-9.07989143-25.67198846-9.07989143-39.12741925 0-97.34409987 159.07286282-176.28374914 355.35075556-176.28374914 13.2120576 0 26.20145461 0.4194304 39.0173835 1.10424115-17.16687202 23.39748471-30.93169746 49.40087499-41.0057943 77.19461167-168.24207739 0.46473923-308.51436089 58.92349851-344.28245333 137.11231557zM464.19011255-8.733137230000011c-22.62464537-2.25249659-45.93280695-3.55739117-69.90506666-3.55739116-169.1249525 0-310.34613253 58.65811817-346.26956959 137.15632987-5.76587346-12.5932683-9.07989143-25.67198846-9.07989143-39.12741926 0-97.34409987 159.07286282-176.28374914 355.35075556-176.28374913 57.86197712 0 112.32320222 7.00345205 160.59653435 19.17728995a305.84631751 305.84631751 0 0 0-90.69276223 62.63493973z"  horiz-adv-x="1024" />

    
    <glyph glyph-name="kecheng" unicode="&#58925;" d="M827.5 828.3h-80.3v-373l-89.9 66-89.9-66v373H197.9c-53 0-96.4-43.4-96.4-96.4v-693.8c0-53 43.4-96.4 96.4-96.4h629.5c53 0 96.4 43.4 96.4 96.4V732c0 53-43.3 96.3-96.3 96.3z m-578.2-720c0-21.2-14.5-38.5-32.1-38.5-17.7 0-32.1 17.3-32.1 38.5V661.8c0 21.2 14.5 38.5 32.1 38.5 17.7 0 32.1-17.3 32.1-38.5v-553.5z"  horiz-adv-x="1024" />

    
    <glyph glyph-name="drama" unicode="&#58891;" d="M877.67188373 407.744928c-66.48579733 18.9959424-75.98376853 71.23478293-185.21043413 71.23478187h-33.2428992c33.24289813 42.74086933 18.9959424 90.23072427 18.9959424 90.23072533s-52.23884053 14.2469568-94.97970987-23.744928v14.2469568c0 85.48173867-66.48579733 123.47362347-66.48579733 123.47362347s-66.48579733-37.99188373-66.48579733-123.47362347V550.2144928c-47.48985493 33.24289813-94.97970987 18.9959424-94.97970987 18.9959424s-14.2469568-47.48985493 18.9959424-90.23072533h-42.7408704c-109.22666667 0-118.72463787-47.48985493-185.21043413-71.23478187-52.23884053-14.2469568-132.97159467-4.7489856-132.97159467-4.7489856s18.9959424-303.935072 265.94318827-313.43304427c104.47768107-4.7489856 189.9594208 61.73681173 218.45333333 151.96753707 4.7489856 0 14.2469568 4.7489856 28.4939136 0 28.49391253-90.23072427 113.97565227-156.7165216 218.45333333-151.96753707 251.69623147 9.4979712 265.94318827 313.4330432 265.94318827 313.43304427s-80.73275413-9.4979712-132.97159467 4.7489856zM398.02434773 270.02434773000004c-9.4979712-33.24289813-61.73681173-47.48985493-118.72463786-28.49391253-56.98782613 14.2469568-90.23072427 61.73681173-85.48173867 85.48173867 9.4979712 23.744928 61.73681173 47.48985493 118.72463787 28.4939136 56.98782613-14.2469568 94.97970987-56.98782613 85.48173866-85.48173974z m346.6759424-28.49391253c-56.98782613-14.2469568-109.22666667-4.7489856-118.72463786 28.49391253-9.4979712 33.24289813 28.49391253 71.23478293 85.48173866 85.48173974 56.98782613 14.2469568 109.22666667-4.7489856 118.72463787-28.4939136 4.7489856-23.744928-28.49391253-71.23478293-85.48173867-85.48173867z"  horiz-adv-x="1024" />

    
    <glyph glyph-name="headline" unicode="&#59116;" d="M980.114286 896S570.514286 892.342857 530.285714 852.114286L29.257143 351.08571400000005c-36.571429-36.571429-36.571429-98.742857 0-135.314285l314.514286-310.857143c36.571429-36.571429 98.742857-36.571429 135.314285 0l504.685715 504.685714C1020.342857 446.171429 1024 859.428571 1024 859.428571c0 18.285714-18.285714 36.571429-43.885714 36.571429z m-223.085715-369.371429c-29.257143-29.257143-73.142857-29.257143-98.742857 0-29.257143 29.257143-29.257143 73.142857 0 98.742858 29.257143 29.257143 73.142857 29.257143 98.742857 0 29.257143-25.6 29.257143-69.485714 0-98.742858z"  horiz-adv-x="1024" />

    
    <glyph glyph-name="prove" unicode="&#59064;" d="M454.12350058-100.37866344999998H178.94165102c-38.06927865 0-69.04108859 30.97180994-69.0410898 69.04251704V797.19262527c0 38.07070708 30.97180994 69.04251702 69.0410898 69.04251702h670.64365541c38.06927865 0 69.04251702-30.97180994 69.04251704-69.04251702v-327.46891461h-57.12248347v327.46891461c0 6.57337003-5.34666476 11.92003357-11.92003357 11.92003356H178.94165102c-6.57194158 0-11.91860634-5.34666476-11.91860634-11.92003356v-828.52877168c0-6.57337003 5.34666476-11.92003357 11.91860634-11.92003357h275.18327679v-57.12248347zM269.73783715 731.22900893h353.95518221v-57.12248224H269.73783715zM269.73783715 460.76976121H541.8179358v-57.12248347H269.73783715zM269.73783715 596.0000993h479.62464438v-57.12248348H269.73783715zM740.65130291 37.21940172999996c-103.5544931 0-187.80158786 84.24852199-187.80158665 187.80301631s84.24709356 187.80158786 187.80158665 187.80158664c103.55592155 0 187.80301509-84.24852199 187.80301631-187.80158664s-84.24709356-187.80301509-187.80301631-187.80301631z m0 318.4821207c-72.05715604 0-130.67910439-58.6233768-130.67910439-130.68053284s58.62194836-130.68053284 130.67910439-130.68053283 130.68053284 58.6233768 130.68053284 130.68053283-58.6233768 130.68053284-130.68053284 130.68053284zM586.27350832-112.79423534a28.55981329 28.55981329 0 0 0-28.55552918 28.56124174V172.81818078000003c0 15.77437321 12.78686732 28.56124174 28.56124173 28.56124052s28.56124174-12.78686732 28.56124173-28.56124052v-192.92119101l95.13892311 85.62517485c11.72438918 10.55195014 29.78223445 9.60086138 40.33561304-2.12352903 10.55195014-11.72438918 9.60228981-29.78223445-2.12352782-40.33561303l-142.80620745-128.52558659A28.5526735 28.5526735 0 0 0 586.27350832-112.79423534zM895.22331466-112.79423534c-6.92610055 0-13.76366197 2.51767345-19.11175517 7.33167131l-142.80620745 128.52558659c-11.72581763 10.55337859-12.67547918 28.61122386-2.12352903 40.33561303 10.55337859 11.72296195 28.60979541 12.67547918 40.33561426 2.12352903l95.1389231-85.62517485V172.81818078000003c0 15.77437321 12.78686732 28.56124174 28.56124173 28.56124052s28.56124174-12.78686732 28.56124174-28.56124052v-257.05117438a28.56124174 28.56124174 0 0 0-28.55552918-28.56124174z"  horiz-adv-x="1024" />

    
    <glyph glyph-name="choose" unicode="&#58919;" d="M512-128c-281.6 0-512 230.4-512 512s230.4 512 512 512 512-230.4 512-512-230.4-512-512-512z m-64 364.8l275.2 243.2c12.8 12.8 12.8 32 0 44.8-12.8 12.8-32 12.8-44.8 0L435.2 307.20000000000005 345.6 403.2c-12.8 12.8-32 12.8-44.8 0-12.8-12.8-12.8-32 0-44.8l108.8-121.6c6.4-6.4 12.8-12.8 25.6-12.8 0 6.4 6.4 12.8 12.8 12.8z"  horiz-adv-x="1024" />

    
    <glyph glyph-name="fangchan" unicode="&#58944;" d="M253.88898471 622.991681h-57.35800407c-10.51563349 0-19.11933428 8.60370079-19.11933429 19.11933429v57.35800407c0 10.51563349 8.60370079 19.11933428 19.11933429 19.11933429h57.35800407c10.51563349 0 19.11933428-8.60370079 19.11933429-19.11933429v-57.35800407c0-10.51563349-8.60370079-19.11933428-19.11933429-19.11933429zM445.08232878 622.991681h-57.35800286c-10.51563349 0-19.11933428 8.60370079-19.11933428 19.11933429v57.35800407c0 10.51563349 8.60370079 19.11933428 19.11933428 19.11933429h57.35800286c10.51563349 0 19.11933428-8.60370079 19.11933551-19.11933429v-57.35800407c0-10.51563349-8.60370079-19.11933428-19.11933551-19.11933429zM253.88898471 431.79833571h-57.35800407c-10.51563349 0-19.11933428 8.60370079-19.11933429 19.11933551v57.35800286c0 10.51563349 8.60370079 19.11933428 19.11933429 19.11933428h57.35800407c10.51563349 0 19.11933428-8.60370079 19.11933429-19.11933428v-57.35800286c0-10.51563349-8.60370079-19.11933428-19.11933429-19.11933551zM445.08232878 431.79833571h-57.35800286c-10.51563349 0-19.11933428 8.60370079-19.11933428 19.11933551v57.35800286c0 10.51563349 8.60370079 19.11933428 19.11933428 19.11933428h57.35800286c10.51563349 0 19.11933428-8.60370079 19.11933551-19.11933428v-57.35800286c0-10.51563349-8.60370079-19.11933428-19.11933551-19.11933551zM253.88898471 240.60499163999998h-57.35800407c-10.51563349 0-19.11933428 8.60370079-19.11933429 19.11933428v57.35800286c0 10.51563349 8.60370079 19.11933428 19.11933429 19.11933551h57.35800407c10.51563349 0 19.11933428-8.60370079 19.11933429-19.11933551v-57.35800286c0-10.51563349-8.60370079-19.11933428-19.11933429-19.11933428zM774.89084947-132.2220305799999h-430.18502629c-21.0312682 0-38.23866858 17.20740159-38.23866858 38.23866856s17.20740159 38.23866858 38.23866858 38.23866858c18.16336794 0 33.45883561 15.29546767 33.4588356 33.45883562v430.18502628C378.16465878 468.12507158 427.87492842 517.8353412199999 488.10083154 517.8353412199999h430.18502628c21.0312682 0 38.23866858-17.20740159 38.23866858-38.23866857s-17.20740159-38.23866858-38.23866858-38.23866979c-18.16336794 0-33.45883561-15.29546767-33.4588356-33.4588344v-430.18502628c0-60.22590313-49.71026963-109.93617275-109.93617275-109.93617276z m-325.0286865 76.47733714h325.0286865c18.16336794 0 33.45883561 15.29546767 33.45883439 33.45883562v430.18502628c0 11.47160106 1.91193392 22.94320091 4.77983419 33.4588344h-325.02868651c-18.16336794 0-33.45883561-15.29546767-33.4588344-33.4588344v-430.18502628c0-11.47160106-1.91193392-22.94320091-4.77983417-33.45883562zM739.52007995 217.66178952999996H524.42756741c-16.25143402 0-28.67900143 12.42756741-28.67900143 28.67900264s12.42756741 28.67900143 28.67900143 28.67900143h215.09251254c16.25143402 0 28.67900143-12.42756741 28.67900143-28.67900143s-13.38353376-28.67900143-28.67900143-28.67900264zM739.52007995 126.84495105999997H524.42756741c-16.25143402 0-28.67900143 12.42756741-28.67900143 28.67900143s12.42756741 28.67900143 28.67900143 28.67900264h215.09251254c16.25143402 0 28.67900143-12.42756741 28.67900143-28.67900264s-13.38353376-28.67900143-28.67900143-28.67900143zM631.49583989 2.5692769800000406c-16.25143402 0-28.67900143 12.42756741-28.67900143 28.67900143V246.34079217c0 16.25143402 12.42756741 28.67900143 28.67900143 28.67900143s28.67900143-12.42756741 28.67900265-28.67900143v-215.09251376c0-15.29546767-12.42756741-28.67900143-28.67900265-28.67900143zM631.49583989 217.66178952999996c-7.64773323 0-14.33950132 2.86790027-20.07530064 8.60370078L503.39629921 334.28973037000003c-11.47160106 11.47160106-11.47160106 29.63496899 0 40.15060248 11.47160106 11.47160106 29.63496899 11.47160106 40.15060249 0l86.99297185-86.99297185 86.99297185 86.99297185c11.47160106 11.47160106 29.63496899 11.47160106 40.15060248 0 11.47160106-11.47160106 11.47160106-29.63496899 0-40.15060248L651.57114175 226.26549031000002c-5.73580052-5.73580052-12.42756741-8.60370079-20.07530186-8.60370078zM918.28585782 441.35800286c-21.0312682 0-38.23866858 17.20740159-38.23866978 38.23866979s17.20740159 38.23866858 38.23866978 38.23866857 38.23866858-17.20740159 38.23866858-38.23866857-17.20740159-38.23866858-38.23866858-38.23866979zM918.28585782 479.59667265c-39.19463614 0-71.69750418-32.50286804-71.69750417-71.69750419v-143.39500835h143.39500837v143.39500835c0 39.19463614-32.50286804 71.69750418-71.6975042 71.69750419zM989.98336202 226.26549031000002h-143.39500837c-21.0312682 0-38.23866858 17.20740159-38.23866979 38.2386698v143.39500835c0 60.22590313 49.71026963 109.93617275 109.93617396 109.93617276S1028.22203058 468.12507158 1028.22203058 407.89916846v-143.39500835c0-21.0312682-17.20740159-38.23866858-38.23866856-38.2386698z m-105.1563398 76.47733837h66.91767122v105.15633978c0 18.16336794-15.29546767 33.45883561-33.45883562 33.4588344s-33.45883561-15.29546767-33.4588356-33.4588344v-105.15633978zM416.40332735 58.97131348999994H34.01663798c-21.0312682 0-38.23866858 17.20740159-38.23866856 38.2386698V861.98336202c0 21.0312682 17.20740159 38.23866858 38.23866856 38.23866856h573.58003467c21.0312682 0 38.23866858-17.20740159 38.23866857-38.23866856v-382.38668937c0-21.0312682-17.20740159-38.23866858-38.23866857-38.23866979H488.10083154c-18.16336794 0-33.45883561-15.29546767-33.4588344-33.4588344V97.20998328999997c0-21.0312682-17.20740159-38.23866858-38.23866979-38.2386698z m-344.14802079 76.47733836h305.90935222V407.89916846C378.16465878 468.12507158 427.87492842 517.8353412199999 488.10083154 517.8353412199999H569.35800286V823.74469344H72.25530656v-688.29604159z"  horiz-adv-x="1024" />

    
    <glyph glyph-name="approval" unicode="&#58907;" d="M806.22265837 521.0916029699999l89.05128771 92.15817955 111.73159822-107.88681955-89.01245155-92.19701572zM449.86216297-70.38293333000001l-120.39205927-15.53445926 11.65084445 124.27567407 419.4304 438.84847407 112.62482963-108.7412148zM473.16385185 655.85303703v-233.01688888H240.14696297v-77.6722963h310.68918518V655.85303703zM232.37973333 11.172977779999997l54.37060742 54.3706074C189.65997037 139.33226666999997 123.63851852 251.9570963 123.63851852 384c0 213.59881482 174.76266667 388.36148148 388.36148148 388.36148148 124.27567408 0 236.9005037-58.25422222 306.80557037-151.46097778l54.37060741 58.25422222C787.73665185 784.01232592 659.57736297 850.03377778 512 850.03377778 255.68142222 850.03377778 45.96622222 640.3185777799999 45.96622222 384c0-151.46097778 73.78868148-287.3874963 186.41351111-372.82702222zM892.59425185 302.44408889c-31.06891852-143.69374815-143.69374815-260.20219259-287.3874963-295.15472592L519.76722963-82.03377778000004c252.43496297 3.88361482 458.26654815 213.59881482 458.26654815 466.03377778v7.76722963l-85.43952593-89.32314074z"  horiz-adv-x="1024" />

    
    <glyph glyph-name="check" unicode="&#58886;" d="M799.507692 856.6153850000001H216.615385c-78.769231 0-149.661538-66.953846-149.661539-153.6v-641.969231c0-86.646154 70.892308-153.6 153.6-153.6h578.953846c86.646154 0 153.6 66.953846 153.6 153.6V706.953846C945.230769 785.723077 886.153846 856.6153850000001 799.507692 856.6153850000001zM385.969231 651.815385L512 529.723077l126.030769 122.092308h-110.276923l3.938462 70.892307h248.123077v-244.184615h-78.769231V588.8l-137.846154-141.784615-39.384615-43.323077-133.907693 126.030769-98.461538-98.461539L236.307692 494.276923l149.661539 157.538462zM630.153846 108.30769199999997H189.046154v78.769231H630.153846v-78.769231z m196.923077 157.538462H189.046154V352.492308H827.076923V265.84615399999996z"  horiz-adv-x="1024" />

    
    <glyph glyph-name="lixi" unicode="&#59148;" d="M807.61844167 384c0 215.62756893-175.63213255 389.52076971-392.99863438 389.52076971S23.36010581 599.62756893 23.36010581 384 198.99223837-5.520769709999968 416.35874019-5.520769709999968s391.25970147 173.89320078 391.25970148 389.52076971z m-229.53902535-67.81834809c8.69465998 0 17.38931997-5.21679645 22.60611641-10.43359175 5.21679645-6.95572821 8.69465998-15.65038819 8.69465998-24.34504818 0-8.69465998-3.47786354-17.38931997-8.69465998-24.34504817-5.21679645-6.95572821-13.91145643-10.43359175-22.60611641-10.4335929h-107.81378446v-59.1236881c-1.73893177-31.30077639-19.12825173-46.95116459-52.16795989-46.95116345-17.38931997 0-29.56184462 3.47786354-38.25650461 12.17252352-8.69465998 8.69465998-13.91145643 19.12825173-15.65038819 36.51757283v59.12368811h-109.55271624c-8.69465998 0-17.38931997 5.21679645-22.6061164 12.17252352-5.21679645 6.95572821-8.69465998 15.65038819-10.43359176 26.08397995 0 8.69465998 3.47786354 17.38931997 10.43359176 22.60611641 5.21679645 5.21679645 13.91145643 8.69465998 22.6061164 10.43359175H364.19077917v34.77863993h-109.55271624c-10.43359175 0-17.38931997 3.47786354-22.6061164 10.43359289-5.21679645 6.95572821-8.69465998 15.65038819-10.43359176 24.34504818 0 8.69465998 3.47786354 17.38931997 10.43359176 22.60611526 5.21679645 5.21679645 13.91145643 8.69465998 22.6061164 10.4335929h81.72980452L259.85485938 550.93747257c-3.47786354 5.21679645-6.95572821 10.43359175-10.43359289 17.38931996-3.47786354 6.95572821-5.21679645 15.65038819-5.21679531 22.60611641 1.73893177 8.69465998 5.21679645 17.38931997 10.43359175 26.08397995 5.21679645 6.95572821 15.65038819 10.43359175 31.3007764 12.17252352 8.69465998 0 17.38931997-3.47786354 24.34504817-8.69465998 6.95572821-5.21679645 12.17252352-10.43359175 17.38931997-17.38931997l85.20766805-156.50387968 93.90232803 156.50387968c5.21679645 6.95572821 10.43359175 12.17252352 17.38931997 17.38931997 6.95572821 5.21679645 15.65038819 8.69465998 24.34504818 8.69465998 5.21679645 0 10.43359175-1.73893177 15.65038819-1.73893177 5.21679645-1.73893177 8.69465998-3.47786354 12.17252466-5.21679531 3.47786354-3.47786354 6.95572821-6.95572821 8.69465998-10.43359288 1.73893177-5.21679645 3.47786354-10.43359175 5.21679531-19.12825174 0-10.43359175-3.47786354-20.86718464-10.43359175-31.30077639l-86.94659982-140.85349262h83.46873628c10.43359175 0 17.38931997-3.47786354 22.60611527-10.43359175 5.21679645-6.95572821 8.69465998-13.91145643 10.43359289-22.60611641 0-8.69465998-3.47786354-17.38931997-10.43359289-24.34504818-5.21679645-6.95572821-13.91145643-10.43359175-22.60611527-10.43359175H468.52670009v-34.77863993h109.55271623zM631.98630798 773.52076971c137.37562909-76.51300807 231.27795712-220.84436537 231.27795712-389.52076971 0-166.93747257-93.90232803-313.00776163-231.27795712-389.52076971 205.19397717 12.17252352 368.65358507 180.84892899 368.65358621 389.52076971 0 206.93290894-161.72067613 375.60931328-368.65358621 389.52076971z"  horiz-adv-x="1024" />

    
    <glyph glyph-name="in-stock" unicode="&#59102;" d="M163.328 537.408v-599.104c0-29.056-58.752-28.992-58.752 0V499.968l-55.744-39.808c-23.68-16.96-57.792 32.256-34.24 49.088L472.576 834.432c30.592 22.848 49.536 23.104 82.24-1.344l454.016-323.84c23.488-16.704-6.528-65.92-30.336-49.088l-55.296 39.36v-99.648c0-30.464-61.376-30.336-61.376 0V540.928L518.4 785.152c-4.032 3.072-7.872 3.072-11.776 0.256L163.328 537.408zM251.776 417.024h80.896a14.72 14.72 0 0 0 14.656-14.656V321.28a14.656 14.656 0 0 0-14.656-14.528H251.776a14.72 14.72 0 0 0-14.656 14.528V402.368a14.72 14.72 0 0 0 14.656 14.656z m192.064 0h80.896c8.128 0 14.656-6.592 14.656-14.656V321.28a14.592 14.592 0 0 0-14.656-14.528H443.84a14.72 14.72 0 0 0-14.656 14.528V402.368a14.72 14.72 0 0 0 14.656 14.656z m-192.064-195.136h80.896c8.064 0 14.656-6.528 14.656-14.656v-80.832a14.72 14.72 0 0 0-14.656-14.784H251.776a14.72 14.72 0 0 0-14.656 14.784v80.832a14.592 14.592 0 0 0 14.656 14.656z m0-194.88h80.896c8.064 0 14.656-6.656 14.656-14.912v-80.704a14.72 14.72 0 0 0-14.656-14.848H251.776a14.848 14.848 0 0 0-14.656 14.848v80.704a14.72 14.72 0 0 0 14.656 14.912z m194.816 194.88h80.896a14.72 14.72 0 0 0 14.656-14.656v-80.832a14.72 14.72 0 0 0-14.656-14.784H446.592a14.72 14.72 0 0 0-14.656 14.784v80.832a14.592 14.592 0 0 0 14.656 14.656z m0-194.88h80.896c8 0 14.656-6.656 14.656-14.912v-80.704a14.72 14.72 0 0 0-14.656-14.848H446.592a14.848 14.848 0 0 0-14.656 14.848v80.704a14.72 14.72 0 0 0 14.656 14.912zM929.6 65.34400000000005a161.92 161.92 0 0 1 30.464 94.272c0 89.6-73.024 162.624-162.432 162.624a162.624 162.624 0 0 1 0-325.184 161.28 161.28 0 0 1 93.696 30.016l69.44-69.44c5.248-5.376 16.32-6.464 21.568-1.28l19.136 19.2c5.248 5.312 2.816 15.04-2.432 20.288l-69.44 69.504z m-267.392 94.208c0 74.688 60.736 135.424 135.36 135.424a135.488 135.488 0 0 0 0-270.912 135.552 135.552 0 0 0-135.36 135.488z"  horiz-adv-x="1024" />

    
    <glyph glyph-name="statistics" unicode="&#58976;" d="M989.86666667 1.7066666700000042H830.57777778V511.43111111c0 35.15733333-28.55822222 63.71555555-63.71555556 63.71555556H639.43111111V702.57777778c0 35.15733333-28.55822222 63.71555555-63.71555556 63.71555555H448.28444445c-35.15733333 0-63.71555555-28.55822222-63.71555556-63.71555555v-382.29333333H257.13777778c-35.15733333 0-63.71555555-28.55822222-63.71555556-63.71555556v-254.86222222H65.99111111V798.15111111c0 17.63555555-14.22222222 31.85777778-31.85777778 31.85777778s-31.85777778-14.22222222-31.85777778-31.85777778v-796.44444444c0-35.15733333 28.55822222-63.71555555 63.71555556-63.71555556h923.87555556c17.63555555 0 31.85777778 14.22222222 31.85777778 31.85777778s-14.22222222 31.85777778-31.85777778 31.85777778z m-732.72888889 0V256.56888889000004h127.43111111v-254.86222222H257.13777778z m191.14666667 0V702.57777778h127.4311111v-700.87111111H448.28444445z m191.14666666 0V511.43111111h127.43111111v-509.72444444H639.43111111z"  horiz-adv-x="1024" />

    
    <glyph glyph-name="date" unicode="&#59260;" d="M128 832s0.512 0 0 0m64-745.984H384v128H192v-128M832 896H768v-192h64V896M256 896H192v-192H256V896M192 278.01599999999996H384v128H192v-128M895.488 832s0.512 0 0 0m-191.488-553.984h128v128h-128v-128M896 832v-96.256c0-53.248-43.008-95.744-96.256-95.744s-95.744 43.008-95.744 96.256V832.512h-384v-96.256c0-53.248-43.008-95.744-96.256-95.744C171.008 640 128 683.008 128 736.256V832c-70.656-0.512-128-57.856-128-128.512v-702.464C0-69.63199999999995 57.344-128 128.512-128h766.976c71.168 0 128.512 57.344 128.512 128.512V703.488c0 70.656-57.344 128-128 128.512m62.976-833.024c0-35.328-28.672-64-64-64h-768c-35.328 0-64 28.672-64 64V468.48c0 35.328 28.672 64 64 64h768c35.328 0 64-28.672 64-64v-469.504m-510.976 279.04H640v128H448v-128m0-192H640v128H448v-128m256 0h128v128h-128v-128m0 0z"  horiz-adv-x="1024" />

    
    <glyph glyph-name="loans" unicode="&#58911;" d="M828.75733333 884.11022222h-633.51466666c-54.61333333 0-96.48355555-43.69066667-96.48355556-96.48355557v-340.4231111c0-54.61333333 43.69066667-96.48355555 96.48355556-96.48355556h633.51466666c54.61333333 0 96.48355555 43.69066667 96.48355556 96.48355556v340.4231111c0 52.79288889-43.69066667 96.48355555-96.48355556 96.48355557z m-223.91466666-313.11644445c10.92266667 0 20.02488889-9.10222222 20.02488888-20.02488889 0-10.92266667-9.10222222-20.02488889-20.02488888-20.02488889h-78.27911112v-65.536c0-10.92266667-9.10222222-20.02488889-20.02488888-20.02488889-10.92266667 0-20.02488889 9.10222222-20.02488889 20.02488889v65.536h-78.27911111c-10.92266667 0-20.02488889 9.10222222-20.02488889 20.02488889 0 10.92266667 9.10222222 20.02488889 20.02488889 20.02488889h76.45866666v54.61333333h-78.27911111c-10.92266667 0-20.02488889 9.10222222-20.02488889 20.02488889 0 10.92266667 9.10222222 20.02488889 20.02488889 20.02488889h61.89511111l-74.63822222 58.25422222c-9.10222222 7.28177778-10.92266667 20.02488889-3.64088889 27.30666667 7.28177778 9.10222222 20.02488889 10.92266667 27.30666667 3.64088888l81.92-65.536 87.38133333 65.536c9.10222222 7.28177778 21.84533333 5.46133333 27.30666667-3.64088888 7.28177778-9.10222222 5.46133333-21.84533333-3.64088889-27.30666667l-78.27911111-58.25422222h67.35644444c10.92266667 0 20.02488889-9.10222222 20.02488889-20.02488889 0-10.92266667-9.10222222-20.02488889-20.02488889-20.02488889h-78.27911111v-54.61333333h83.74044445zM998.05866667 246.95466665000004c-18.20444445 45.51111111-76.45866667 43.69066667-107.40622222 36.4088889l-94.66311112-27.30666667c-3.64088889-30.94755555-16.384-61.89511111-40.04977778-81.92-61.89511111-60.07466667-183.86488889-70.99733333-273.06666666-70.99733333-50.97244445 0-91.02222222 3.64088889-100.12444444 5.46133333-16.384 1.82044445-29.12711111 16.384-29.12711112 32.768 1.82044445 16.384 16.384 29.12711111 32.768 29.12711111h1.82044445c67.35644445-7.28177778 256.68266667-12.74311111 324.03911111 49.152 12.74311111 12.74311111 20.02488889 25.48622222 21.84533333 41.87022223-18.20444445 25.48622222-50.97244445 36.40888889-74.63822222 36.40888888h-617.13066667c-14.56355555 0-25.48622222-12.74311111-25.48622222-27.30666667v-112.86755555c0-10.92266667 10.92266667-56.43377778 18.20444444-61.89511111 183.86488889-143.81511111 371.37066667-203.88977778 496.98133334-203.88977778 14.56355555 0 27.30666667 0 40.04977778 1.82044444 80.09955555 12.74311111 344.064 183.86488889 395.03644444 225.73511112 38.22933333 34.58844445 50.97244445 83.74044445 30.94755556 127.4311111z"  horiz-adv-x="1024" />

    
    <glyph glyph-name="end" unicode="&#59117;" d="M678.528 253.69600000000003c0-17.6-14.4-32-32-32h-268.992a32 32 0 0 0-32 32V514.304a32 32 0 0 0 32 32h268.992c17.6 0 32-14.4 32-32v-260.608zM1015.552 383.87199999999996a502.656 502.656 0 0 1-503.68 503.68 502.208 502.208 0 0 1-356.096-147.264 502.016 502.016 0 0 1-147.328-356.416 500.288 500.288 0 0 1 146.816-356.736 499.584 499.584 0 0 1 356.544-146.688c277.312 2.816 503.744 226.24 503.744 503.424z m-947.968 0a444.288 444.288 0 0 0 444.288 444.544c246.976 0 447.296-200.128 447.296-444.544 0-244.032-200.32-444.416-447.296-444.416a442.304 442.304 0 0 0-444.288 444.416z"  horiz-adv-x="1024" />

    
    <glyph glyph-name="information" unicode="&#58918;" d="M167.368305 28.625069000000053H650.248482c-20.921038 20.921038-39.014909 46.930977-52.019879 72.940917H167.368305c-52.019879 0-93.861955 41.842076-93.861955 93.861954V728.631695C73.50635 780.651574 115.348426 822.49365 167.368305 822.49365h668.907786c52.019879 0 93.861955-41.842076 93.861954-93.861955v-290.067366c28.837107-13.00497 52.019879-28.837107 72.940917-49.758145V728.631695c0 91.600221-72.940917 167.368305-167.368305 167.368305H167.368305C75.768084 896 0 820.231916 0 728.631695v-532.638321c0-91.600221 75.768084-167.368305 167.368305-167.368305z m700.006626-67.852015c-13.00497-2.827167-28.837107-5.088901-41.842076-5.088902-15.832137 0-31.09884 2.827167-44.669244 5.088902H36.753175c-20.921038 0-36.753175-15.832137-36.753175-36.753175s15.832137-36.753175 36.753175-36.753176h929.572612l-72.940917 73.506351h-26.009939zM1117.861955-65.23688600000003l-112.521259 112.521259c39.014909 41.842076 62.763114 96.689122 62.763114 159.452237 0 130.61513-104.605191 235.22032-235.22032 235.22032s-235.22032-104.605191-235.22032-235.22032 104.605191-235.22032 235.22032-235.220321c41.842076 0 80.856985 10.177802 114.782993 28.837107l117.61016-117.61016c7.916068-7.916068 15.832137-10.177802 26.009939-10.177803 10.177802 0 18.093871 2.827167 26.009939 10.177803 16.39757 13.00497 16.39757 36.187742 0.565434 52.019878z m-446.692435 271.408062c0 88.773054 72.940917 161.71397 161.71397 161.71397S995.162893 295.50966300000005 995.162893 206.17117599999995s-72.940917-161.71397-161.71397-161.71397-162.279404 72.940917-162.279403 161.71397zM287.240199 519.986748c62.763114 0 112.521259 49.758145 112.521259 112.521259s-49.758145 112.521259-112.521259 112.521259-112.521259-49.758145-112.521259-112.521259 49.758145-112.521259 112.521259-112.521259z m0 172.457206c33.926008 0 62.763114-28.837107 62.763114-62.763115s-28.837107-62.763114-62.763114-62.763114-62.763114 28.837107-62.763115 62.763114S253.314191 692.443954 287.240199 692.443954zM201.294313 415.381557h172.457205c13.00497 0 23.748205 10.177802 23.748206 23.748206s-10.177802 23.748205-23.748206 23.748205H201.294313c-13.00497 0-23.748205-10.177802-23.748206-23.748205s7.916068-23.748205 23.748206-23.748206zM814.789619 561.8288239999999v10.743236s0 2.827167-2.827167 2.827167v2.827167l-2.827168 2.827168-78.595251 70.679182c-10.177802 7.916068-26.009939 7.916068-33.926008-2.827167-7.916068-10.177802-7.916068-26.009939 2.827168-33.926008l28.837106-26.009939h-99.516289s-2.827167 0-2.827167-2.827167c-2.827167 0-2.827167-2.827167-5.088902-2.827168L368.097184 313.60353399999997H201.294313c-13.00497 0-23.748205-10.177802-23.748206-23.748205s10.177802-23.748205 23.748206-23.748206h172.457205c7.916068 0 13.00497 2.827167 18.093871 7.916069l253.314191 269.146328H718.100497l-20.921038-18.093871c-10.177802-7.916068-13.00497-23.748205-5.088901-33.926008 5.088901-5.088901 13.00497-10.177802 18.09387-10.177802 5.088901 0 10.177802 2.827167 15.832137 5.088901l78.595252 59.935947 2.827167 2.827167s0 2.827167 2.827167 2.827168l2.827168 2.827167v5.654334c1.6963-3.958034 1.6963-1.130867 1.6963 1.696301 0-2.827167 0 0 0 0zM286.109332 631.942573m-71.244616 0a71.244616 71.244616 0 1 1 142.489232 0 71.244616 71.244616 0 1 1-142.489232 0Z"  horiz-adv-x="1130" />

    
    <glyph glyph-name="hours" unicode="&#58908;" d="M508.3414292 304.46356859c-212.09715042 0-388.84477577 70.69905013-450.70644463 159.07286282-17.67476253-26.51214381-26.51214381-53.02428761-26.51214382-79.53643141 0-132.56071902 212.09715042-238.60929422 486.05596973-238.60929422s486.05596972 106.0485752 486.0559697 238.60929422c0 26.51214381-8.83738127 53.02428761-26.51214379 79.53643141-79.53643141-97.21119393-256.28405675-159.07286282-468.38120719-159.07286282zM508.3414292 74.69165565000003c-212.09715042 0-388.84477577 70.69905013-450.70644463 159.0728628-17.67476253-26.51214381-26.51214381-53.02428761-26.51214382-79.5364314 0-132.56071902 212.09715042-238.60929422 486.05596973-238.60929423s486.05596972 106.0485752 486.0559697 238.60929423c0 26.51214381-8.83738127 53.02428761-26.51214379 79.5364314-79.53643141-88.37381268-256.28405675-159.07286282-468.38120719-159.0728628zM543.69095428 772.84477577v-141.39810028h159.07286281c17.67476253 0 35.34952507-17.67476253 35.34952507-35.34952507s-17.67476253-35.34952507-35.34952507-35.34952508H508.3414292c-17.67476253 0-26.51214381 17.67476253-35.34952506 26.51214381V781.68215703c-238.60929422-17.67476253-415.35691957-97.21119393-415.35691957-203.25976915 0-114.88595647 203.25976915-203.25976915 459.54382591-203.25976915s459.54382592 88.37381268 459.54382591 203.25976915c0 106.0485752-194.42238788 194.42238788-433.03168211 194.42238789z"  horiz-adv-x="1024" />

    
    <glyph glyph-name="where" unicode="&#58895;" d="M512.001396 896C348.298776 896 215.573558 761.2818 215.573558 595.143461 215.573558 429.005122 512.001396 93.75582899999995 512.001396 93.75582899999995 512.001396 93.75582899999995 808.42593 429.005122 808.42593 595.143461 808.42593 761.2818 675.700713 896 512.001396 896L512.001396 896ZM689.853915 595.143461C689.853915 495.46628 610.230455 414.63021 512.001396 414.63021 413.769034 414.63021 334.144473 495.46628 334.144473 595.143461 334.144473 694.838557 413.769034 775.657833 512.001396 775.657833 610.230455 775.657833 689.853915 694.843035 689.853915 595.143461L689.853915 595.143461ZM215.573558-75.03440799999998a52.4138 9.827599999999997 0 1 1 564.965592 0 52.4138 9.827599999999997 0 1 1-564.965592 0Z"  horiz-adv-x="1024" />

    
    <glyph glyph-name="eye" unicode="&#58902;" d="M512 520.3179868899999c-75.42912037 0-136.31798689-60.88886651-136.31798689-136.31798689s60.88886651-136.31798689 136.31798689-136.31798689 136.31798689 60.88886651 136.31798689 136.31798689c0 75.43533417-60.88886651 136.31798689-136.31798689 136.31798689z m0-363.51877423c-125.41279649 0-227.20078734 101.78799085-227.20078734 227.20078734S386.58720351 611.19457356 512 611.19457356s227.19457356-101.78177707 227.19457356-227.19457356-101.78177707-227.20078734-227.19457356-227.20078734z m0 568.00196835c-222.11791227 0-412.53310009-135.06280258-494.38727282-327.4974701a33.97075551 33.97075551 0 0 1 0-26.60120803C99.46689991 178.26783536000005 289.88208773 43.19881898999995 512 43.19881898999995c222.11169849 0 412.53310009 135.06280258 494.3934866 327.4974701a34.02046578 34.02046578 0 0 1 0 26.60120803C924.53310009 589.7321646400001 734.11169849 724.8011810099999 512 724.8011810099999z"  horiz-adv-x="1024" />

    
    <glyph glyph-name="remind" unicode="&#58896;" d="M262.67192889 315.77783308999994v-332.56688198h148.48353975V313.83602569000004l-74.17704295 62.91456zM13.34385778-16.789048890000004h148.48353975v249.84588642l-148.48353975-121.68659753zM761.32807111 391.1199605v-407.90900939h148.61299358V518.24361876zM512 228.39649974999998v-245.18554864h148.48353975V304.77425777999997L541.77438025 203.15300347000004zM1007.54925037 787.11921778H722.88028445l120.65096691-118.06189037L541.77438025 410.66748839l-204.79595456 173.46812841-324.54074471-266.02761483v-114.9549985l324.54074471 266.0276148 204.79595456-173.4681284 364.54197728 311.98372346 101.23289284-98.90272394z"  horiz-adv-x="1024" />

    
    <glyph glyph-name="law" unicode="&#59022;" d="M583.031714 252.82242499999995c-1.824445-4.013778-2.675852-8.270816-2.675852-12.527853 0-8.149186 3.162371-15.811854 8.878964-21.528448l61.422972-61.422972c22.258225-22.258225 61.301342-22.379855 83.802827 0l201.418696 201.297067c22.988003 23.109633 22.988003 60.693194-0.12163 83.802826l-61.422972 61.422972c-9.122224 9.365483-23.717781 12.041335-35.880746 5.108446L579.504454 767.923981c2.310963 4.378667 3.648889 9.365483 3.64889 14.473928 0 8.270816-3.162371 15.933484-9.000594 21.528448L512.729778 865.227699c-22.379855 22.379855-61.422972 22.258225-83.802827 0L227.751514 663.930633c-23.109633-23.109633-23.109633-60.693194 0-83.802827l61.422972-61.422972c8.757335-8.878964 23.109633-11.311557 34.056302-6.203112l73.464306-73.342677-359.780496-359.658867c-8.514075-8.514075-13.136002-19.704003-13.136002-31.623708s4.621927-23.109633 13.136002-31.502079l60.571564-60.571564c8.514075-8.392446 19.704003-13.136002 31.623709-13.136002s23.109633 4.621927 31.623708 13.136002l359.780496 359.780496 62.517639-62.760898zM370.179831 556.653284l164.929802 164.808172 257.003445-257.003444L627.061646 299.64984000000004l-106.79083 106.79083L145.408243 31.456467999999973c-8.878964-8.757335-24.08267-8.757335-32.840004 0.121629-4.378667 4.378667-6.81126 10.095261-6.811261 16.298373s2.432593 12.041335 6.811261 16.420002l367.321534 367.321535 7.662668 7.541038-117.37261 117.494239z m293.005821-317.331749c0 2.310963 0.973037 4.621927 2.554222 6.324741l181.593063 181.593064c1.702815 1.702815 4.013778 2.554223 6.324742 2.554222 2.310963 0 4.621927-0.973037 6.324742-2.554222l20.43378-20.433781c1.702815-1.702815 2.675852-3.892149 2.554223-6.324742 0-2.310963-0.973037-4.621927-2.554223-6.324741L698.944768 212.56301199999996c-3.40563-3.40563-9.365483-3.40563-12.649484 0l-20.43378 20.433781c-1.702815 1.702815-2.675852 4.013778-2.675852 6.324742zM501.174961 782.397909c0-2.310963-0.973037-4.621927-2.675852-6.324741L317.027675 594.480105c-3.40563-3.40563-9.365483-3.40563-12.649483 0l-21.285188 21.285188c-3.52726 3.52726-3.52726 9.243853 0 12.649483L464.564438 810.007839c1.702815 1.702815 4.013778 2.554223 6.446371 2.554223 2.310963 0 4.621927-0.973037 6.324742-2.554223l21.285188-21.285188c1.581185-1.702815 2.554223-4.013778 2.554222-6.324742z m372.55161-738.170329H526.960447c-69.693788 0-126.494833-56.679416-126.494834-126.373203v-32.110227h599.755791v32.110227c0 69.693788-56.679416 126.373203-126.494833 126.373203z m-400.03991-94.262976c11.068298 18.487706 31.01556 30.042523 53.273786 30.042523h346.766124c22.258225 0 42.205488-11.676446 53.273785-30.042523H473.686661z m0 0"  horiz-adv-x="1024" />

    
    <glyph glyph-name="xiaoxi" unicode="&#58945;" d="M721.338182 545.140364a64.512 64.512 0 0 0 64.512-64.488728 64.512 64.512 0 0 0-129.000727 0 64.488727 64.488727 0 0 0 64.488727 64.488728zM495.592727 545.140364a64.465455 64.465455 0 1 0 0-128.977455 64.465455 64.465455 0 0 0 0 128.977455zM269.847273 545.140364a64.512 64.512 0 1 0 0-129.000728 64.512 64.512 0 0 0 0 129.000728zM427.264-34.769455a32.116364 32.116364 0 0 0-28.299636 16.756364l-109.544728 192.069818a32.186182 32.186182 0 0 0 12.032 43.962182 32.116364 32.116364 0 0 0 43.962182-12.032l81.850182-143.429818 81.850182 143.429818c8.843636 15.499636 28.509091 20.945455 43.985454 12.032 15.476364-8.797091 20.852364-28.485818 12.032-43.962182l-109.568-192.069818a32.302545 32.302545 0 0 0-28.229818-16.756364h-0.069818zM837.934545 158.976H540.439273c-17.826909 0-32.256 14.405818-32.256 32.256s14.429091 32.256 32.256 32.256h297.495272c42.146909 0 76.404364 32.814545 76.404364 73.146182V665.204364c0 40.308364-34.280727 73.076364-76.404364 73.076363H186.042182c-42.123636 0-76.381091-32.768-76.381091-73.076363v-368.570182c0-40.308364 34.257455-73.146182 76.381091-73.146182h129.419636c17.826909 0 32.256-14.405818 32.256-32.256s-14.429091-32.256-32.256-32.256H186.042182c-77.684364 0-140.893091 61.719273-140.893091 137.634909V665.204364c0 75.869091 63.208727 137.588364 140.893091 137.588363h651.892363c77.684364 0 140.916364-61.719273 140.916364-137.588363v-368.570182c0-75.938909-63.232-137.658182-140.916364-137.658182z"  horiz-adv-x="1024" />

    
    <glyph glyph-name="appointment" unicode="&#59538;" d="M352.175686 406.889412H192.351373c-14.456471 0-26.503529-12.448627-26.50353-26.50353 0-14.456471 12.448627-26.503529 26.50353-26.503529h161.832156c14.456471 0 26.503529 12.448627 26.50353 26.503529 0 14.054902-12.047059 26.503529-28.511373 26.50353z m100.392157-358.600785H108.423529c-26.503529 0-48.991373 22.487843-48.991372 48.991373V513.305098h835.664314v208.815686c0 57.424314-46.983529 104.407843-104.407844 104.407843H702.745098V865.480784c0 14.456471-12.448627 26.503529-26.503529 26.50353-14.456471 0-26.503529-12.448627-26.50353-26.50353v-36.944313H251.783529V865.480784C251.783529 879.937255 239.334902 891.984314 225.28 891.984314c-14.456471 0-26.503529-12.448627-26.503529-26.50353v-36.944313H108.423529C50.999216 826.528627 4.015686 779.545098 4.015686 722.120784v-622.832941c0-57.424314 46.983529-104.407843 104.407843-104.407843h342.136471c8.031373 0 14.456471 4.015686 20.48 8.031373 6.023529 6.023529 8.031373 12.448627 8.031373 18.472156 0 16.865882-12.047059 26.905098-26.50353 26.905098zM59.432157 722.120784C59.432157 749.025882 81.92 771.513725 108.423529 771.513725h87.94353v-69.471372c0-14.456471 12.448627-26.503529 26.503529-26.503529 14.456471 0 26.503529 12.448627 26.50353 26.503529V773.521569h395.143529v-69.471373c0-14.456471 12.448627-26.503529 26.503529-26.503529 14.456471 0 26.503529 12.448627 26.50353 26.503529V773.521569h87.943529c26.503529 0 48.991373-22.487843 48.991373-48.991373V570.729412h-775.027451V722.120784z m890.679216-358.199215c-46.983529 46.983529-110.431373 73.888627-178.296471 73.888627-67.463529 0-130.911373-26.503529-178.296471-73.888627-46.983529-46.983529-73.888627-112.840784-73.888627-180.304314 0-67.463529 26.503529-130.911373 73.888627-180.304314 46.983529-46.983529 110.431373-73.888627 178.296471-73.888627 67.463529 0 130.911373 26.503529 178.296471 73.888627 46.983529 46.983529 73.888627 112.840784 73.888627 180.304314 0 67.463529-26.503529 132.919216-73.888627 180.304314z m-177.894902-379.080785c-108.423529 0-198.776471 89.951373-198.776471 198.776471 0 110.431373 87.943529 198.776471 198.776471 198.77647 110.431373 0 198.776471-89.951373 198.77647-198.77647-2.409412-110.431373-90.352941-198.776471-198.77647-198.776471z m95.974902 227.287843h-69.471373V281.6c0 14.456471-12.448627 26.503529-26.503529 26.503529-14.456471 0-26.503529-12.448627-26.50353-26.503529v-124.486275h122.88c14.456471 0 26.503529 12.448627 26.50353 26.50353 0 16.464314-12.448627 28.511373-26.905098 28.511372z m-516.015687 0H192.351373c-14.456471 0-26.503529-12.448627-26.50353-26.503529 0-14.456471 12.448627-26.503529 26.50353-26.503529h161.832156c14.456471 0 26.503529 12.448627 26.50353 26.503529 0 14.456471-12.047059 26.503529-28.511373 26.503529z m0 0"  horiz-adv-x="1024" />

    
    <glyph glyph-name="righttwo" unicode="&#58897;" d="M328.26218831-9.439607590000037C309.03432947-28.667467999999985 309.13121073-60.40288276000001 328.76477215-80.03643948000001 347.82413788-99.09580675999996 380.00561337-99.89501711000003 399.36160562-80.53902801000004L839.16201321 359.26137802000005C858.38987203 378.4892384 858.29299236 410.22465005 838.65942464 429.85821147 837.95682377 430.56081705 837.23638476 431.23860726 836.4994147 431.89148787 835.83193554 432.64302818 835.1382726 433.37936037 834.41837717 434.09925738L396.99529426 871.52234342C376.9454914 891.57214629 344.8433638 891.84197942 325.20980239 872.20841801 306.15043666 853.14905228 305.88340636 820.43539676 325.89587695 800.42292614L732.01029557 394.30850283 328.26218831-9.439607590000037Z"  horiz-adv-x="1024" />

    
    <glyph glyph-name="degression" unicode="&#58916;" d="M467.478261 896h57.37931c2.366817-0.511744 4.733633-1.151424 7.10045-1.471264 22.644678-3.390305 45.289355-6.908546 67.998001-9.915043 5.629185-0.703648 6.844578-3.198401 7.164418-8.571714 3.454273-57.635182 12.025987-114.502749 27.058471-170.154923 4.477761-16.631684 9.403298-33.071464 14.328835-50.470764-22.004998 0-43.306347-0.255872-64.607696 0.191904-5.949025 0.127936-8.315842-2.046977-10.234883-7.676162-17.655172-52.837581-35.758121-105.547226-53.733133-158.256872l-23.732134-69.981009c-1.791104 5.053473-3.070465 8.443778-4.157921 11.834083-23.54023 71.964018-47.144428 143.928036-70.492754 215.956022-1.91904 6.012994-4.541729 8.187906-10.874562 8.123938-34.734633-0.383808-69.469265-0.191904-104.13993-0.191904-2.622689 0-5.181409-0.31984-9.083459-0.511744l94.8006-226.446777H297.131434l3.198401-79.32034h107.722139c2.878561 0 7.228386-0.063968 8.315842-1.791104 9.403298-15.032484 19.254373-30.064968 13.049475-50.726637H297.57921v-76.505747h133.693154v-106.570715h115.142429v107.082459h130.302848V297.131434H547.246377c-2.494753 17.71914-0.895552 22.516742 5.693153 37.037482 5.245377 11.514243 11.898051 15.992004 24.883558 15.352323 30.064968-1.215392 60.129935-0.383808 90.194903-0.31984 2.878561 0 5.757121 0.31984 8.571714 0.447776V428.841579H600.01999l70.556722 168.363818c2.174913-4.541729 3.646177-7.42029 4.925537-10.29885 63.392304-143.864068 158.384808-259.710145 290.030984-342.868566 5.245377-3.326337 6.012994-6.204898 4.221889-12.153923-32.367816-104.77961-91.090455-190.752624-176.551724-257.215392a474.642679 474.642679 0 0 0-230.284857-97.423289c-12.601699-1.727136-25.331334-3.198401-38.06097-4.733633h-57.37931c-1.023488 0.383808-2.046977 0.95952-3.070465 1.087456-17.335332 2.046977-34.926537 2.942529-52.005997 6.14093-126.272864 23.54023-229.197401 87.06047-308.069965 190.688656A504.707646 504.707646 0 0 0 4.733633 314.21089500000005C2.942529 327.772114 1.535232 341.39730099999997 0 354.83058500000004v58.850574c0.511744 2.942529 1.087456 5.885057 1.471264 8.955523 2.942529 22.068966 4.477761 44.521739 8.955523 66.334832C36.461769 613.3893049999999 98.638681 714.970515 197.021489 792.49975A472.915542 472.915542 0 0 0 428.585707 891.138431c12.921539 1.791104 25.907046 3.198401 38.892554 4.861569zM1023.488256 385.087456c-11.514243-14.072964-23.156422-28.145927-34.542729-42.21889-11.706147-14.456772-23.156422-29.041479-34.926536-43.882059l-21.429286 17.3993 34.222889 43.306347c16.183908 20.469765 32.367816 40.93953 48.615692 61.217391 2.366817 2.878561 5.373313 5.245377 8.05997 7.868066v-43.690155zM835.230385 468.693653l-15.096452 23.22039L967.708146 697.69915c4.221889-7.996002 8.315842-14.904548 11.514243-22.260869 0.831584-2.046977-0.255872-6.332834-1.727137-8.37981-26.930535-37.933033-54.052974-75.674163-81.175412-113.479261l-55.076462-76.825587-6.012993-7.996002z m-54.692654 100.429785c-4.029985 9.083458-7.804098 16.567716-10.618691 24.49975-0.767616 2.110945 0.767616 6.14093 2.366817 8.315842 24.435782 34.478761 49.063468 68.701649 73.627186 102.988506l57.187407 79.576212 18.166916-19.190405-140.729635-196.125937z m235.338331 18.614693c2.814593-11.130435 5.437281-20.597701 7.548226-30.256872 0.383808-1.91904-0.895552-4.861569-2.110945-6.588705l-116.293853-162.222889-3.198401-4.413793-17.975012 19.446277 132.029985 184.035982zM823.524238 850.710645l21.301349-14.904548-108.745627-151.604198c-3.198401 10.682659-6.076962 20.021989-8.507746 29.553223-0.383808 1.5992 0.95952 4.221889 2.046976 5.757122 31.024488 43.498251 62.176912 86.868566 93.905048 131.198401z m-115.718141-28.977512C706.270865 835.230385 704.927536 846.488756 703.648176 857.811094a7.42029 7.42029 0 0 0 1.27936 4.477762c7.612194 10.746627 15.16042 21.429285 23.028486 31.792104 1.023488 1.407296 3.838081 2.302849 5.437281 1.727136 6.716642-2.366817 13.369315-5.373313 21.237382-8.635682l-46.824588-65.439281z"  horiz-adv-x="1024" />

    
    <glyph glyph-name="erweima" unicode="&#58951;" d="M62.4 427.2h406.4V833.6H62.4v-406.4z m96 310.4h214.4v-214.4H158.4V737.6zM62.4-62.4h406.4V345.6H62.4v-408z m96 312h214.4v-214.4H158.4V249.6zM552 833.6v-406.4h406.4V833.6H552z m310.4-310.4H648V737.6h214.4v-214.4zM876.8 260.8h-81.6v84.8H552v-408h84.8V188.8h81.6v-89.6h240V345.6h-81.6zM720 16h78.4v-78.4H720zM880 16h78.4v-78.4H880zM227.2 174.4h78.4V96h-78.4zM227.2 668.8h78.4v-78.4h-78.4zM720 668.8h78.4v-78.4H720z"  horiz-adv-x="1024" />

    
    <glyph glyph-name="tick" unicode="&#58962;" d="M411.45023932 54.07109935999995c-18.85308003-18.85308003-47.1327001-18.85308003-65.98578013 0L18.6777395 377.71563949999995c-18.85308003 18.85308003-18.85308003 47.1327001 0 65.98578014 18.85308003 18.85308003 47.1327001 18.85308003 65.98578015 0l323.64454016-323.64454016c21.99525954-18.85308003 21.99525954-47.1327001 3.14217951-65.98578012zM342.32227966 54.07109935999995c-18.85308003 18.85308003-18.85308003 47.1327001 0 65.98578012l593.87202117 593.87202116c18.85308003 18.85308003 47.1327001 18.85308003 65.98578015 0 18.85308003-18.85308003 18.85308003-47.1327001 0-65.98578012L411.45023932 54.07109935999995c-18.85308003-18.85308003-50.27487962-18.85308003-69.12795966 0z"  horiz-adv-x="1024" />

    
    <glyph glyph-name="subscribe" unicode="&#58931;" d="M779.60533333 389.46133333c-132.7104 0-240.29866667-107.58826667-240.29866666-240.29866666s107.58826667-240.29866667 240.29866666-240.29866667 240.29866667 107.58826667 240.29866667 240.29866667-107.58826667 240.29866667-240.29866667 240.29866666z m0-425.984c-102.12693333 0-185.68533333 83.5584-185.68533333 185.68533334s83.5584 185.68533333 185.68533333 185.68533333 185.68533333-83.5584 185.68533334-185.68533333-83.5584-185.68533333-185.68533334-185.68533334zM877.90933333 176.46933333000004h-70.99733333v70.99733334c0 15.29173333-12.01493333 27.30666667-27.30666667 27.30666666s-27.30666667-12.01493333-27.30666666-27.30666666v-98.304c0-15.29173333 12.01493333-27.30666667 27.30666666-27.30666667h98.304c15.29173333 0 27.30666667 12.01493333 27.30666667 27.30666667s-12.01493333 27.30666667-27.30666667 27.30666666zM495.616 18.09066667000002H158.65173333c-49.152 0-89.01973333 39.86773333-89.01973333 89.01973333V465.92h830.12266667c15.29173333 0 27.30666667 12.01493333 27.30666666 27.30666667V660.8896c0 79.18933333-64.44373333 143.63306667-143.63306666 143.63306667H708.608v27.30666666c0 15.29173333-12.01493333 27.30666667-27.30666667 27.30666667s-27.30666667-12.01493333-27.30666666-27.30666667v-27.30666666H288.08533333v27.30666666c0 15.29173333-12.01493333 27.30666667-27.30666666 27.30666667s-27.30666667-12.01493333-27.30666667-27.30666667v-27.30666666H158.65173333C79.4624 804.52266667 15.01866667 740.07893333 15.01866667 660.8896v-553.7792C15.01866667 27.92106666999996 79.4624-36.522666670000035 158.65173333-36.522666670000035H495.616c15.29173333 0 27.30666667 12.01493333 27.30666667 27.30666667s-12.01493333 27.30666667-27.30666667 27.30666667zM441.00266667 356.69333333H184.32c-15.29173333 0-27.30666667-12.01493333-27.30666667-27.30666666s12.01493333-27.30666667 27.30666667-27.30666667h256.68266667c15.29173333 0 27.30666667 12.01493333 27.30666666 27.30666667s-12.01493333 27.30666667-27.30666666 27.30666666zM441.00266667 187.39200000000005H184.32c-15.29173333 0-27.30666667-12.01493333-27.30666667-27.30666667s12.01493333-27.30666667 27.30666667-27.30666666h256.68266667c15.29173333 0 27.30666667 12.01493333 27.30666666 27.30666666s-12.01493333 27.30666667-27.30666666 27.30666667z"  horiz-adv-x="1024" />

    
    <glyph glyph-name="traffic" unicode="&#59089;" d="M975.36379259 344.79976296999996h-34.58844444c-7.40314075 8.73813333-16.384 16.01991111-16.384 16.01991111l-71.96823704 190.78257777c-14.92764445 36.16616297-58.86103703 55.09878518-78.15774814 55.09878518H421.2205037c-19.17534815 0-63.2301037-19.05398518-78.15774815-55.09878518l-71.96823703-190.78257777s-8.98085925-7.28177778-16.384-16.01991111h-34.58844444c-22.69487408 0-41.26340741-18.44717037-41.26340741-41.38477038 0-22.9376 18.44717037-41.38477037 41.26340741-41.38477037h14.32082962c-0.36408889-10.31585185-0.60681482-22.20942222-0.60681481-36.28752592 0-82.40545185 16.74808889-111.77528889 36.77297778-121.96977778l15.77718518-8.8594963v-76.58002963c0-24.87940741 5.94678518-32.28254815 29.8552889-32.28254814h53.52106666c23.78714075 0 29.85528889 7.40314075 29.85528889 32.28254814v76.58002963h396.61416295v-76.58002963c0-24.87940741 5.94678518-32.28254815 29.8552889-32.28254814h53.52106667c23.78714075 0 29.85528889 7.40314075 29.85528888 32.28254814v76.58002963l15.77718519 8.8594963c20.02488889 10.19448889 36.77297778 39.44296297 36.77297778 121.96977778 0 13.95674075-0.24272592 25.97167408-0.60681482 36.28752592H975.60651852c22.69487408 0 41.26340741 18.44717037 41.2634074 41.38477037-0.24272592 22.81623703-18.6898963 41.26340741-41.50613333 41.38477038zM398.76835555 137.75454815c-30.4621037 0.12136297-55.09878518 24.87940741-55.09878518 55.3415111s24.63668148 55.22014815 55.09878518 55.34151112c30.4621037-0.12136297 55.09878518-24.87940741 55.0987852-55.34151112-0.12136297-30.4621037-24.63668148-55.22014815-55.0987852-55.3415111z m398.07051853 0c-30.4621037 0.12136297-55.09878518 24.87940741-55.09878519 55.3415111s24.63668148 55.22014815 55.09878519 55.34151112c30.4621037-0.12136297 55.09878518-24.87940741 55.09878517-55.34151112s-24.63668148-55.22014815-55.09878517-55.3415111z m22.45214814 181.80171852H362.48082963c-21.60260741 0-26.94257778 40.04977778-22.9376 54.49197036 3.39816297 12.1362963 23.42305185 76.70139259 33.37481482 109.59075556 4.00497778 11.28675555 27.06394075 37.25842963 58.0114963 35.31662223H764.43496297c31.06891852 1.94180741 53.88515555-24.02986667 58.01149628-35.31662223 9.95176297-32.88936297 29.97665185-97.45445925 33.49617778-109.59075556 4.00497778-14.44219259-1.33499259-54.49197037-36.65161481-54.49197036zM220.48616297 493.34802963L47.17985185 574.0544l87.5026963 123.42613333L255.92414815 560.2190222199999l-35.43798518-66.87099259z m60.9242074 87.74542222l-86.41042962 179.37445926 84.71134814 15.29173334 19.6608-160.07774815-17.96171852-34.58844445z m-71.72551112-111.77528888l-6.1895111-30.94755556-193.81665185-52.67152593 24.39395555 82.8909037 175.6122074 0.72817779z m0 0"  horiz-adv-x="1024" />

    
    </font>
</defs>
</svg>
